<?xml version="1.0" encoding="UTF-8" standalone="no"?>
<!-- Created with Inkscape (http://www.inkscape.org/) -->

<svg
   width="97.825661mm"
   height="131.65071mm"
   viewBox="0 0 97.825661 131.65071"
   version="1.1"
   id="svg87124"
   inkscape:version="1.2.1 (9c6d41e410, 2022-07-14)"
   sodipodi:docname="boxer-icon.svg"
   xmlns:inkscape="http://www.inkscape.org/namespaces/inkscape"
   xmlns:sodipodi="http://sodipodi.sourceforge.net/DTD/sodipodi-0.dtd"
   xmlns="http://www.w3.org/2000/svg"
   xmlns:svg="http://www.w3.org/2000/svg">
  <sodipodi:namedview
     id="namedview87126"
     pagecolor="#ffffff"
     bordercolor="#666666"
     borderopacity="1.0"
     inkscape:showpageshadow="2"
     inkscape:pageopacity="0.0"
     inkscape:pagecheckerboard="0"
     inkscape:deskcolor="#d1d1d1"
     inkscape:document-units="mm"
     showgrid="false"
     inkscape:zoom="0.55055723"
     inkscape:cx="-202.52209"
     inkscape:cy="-14.530733"
     inkscape:window-width="1920"
     inkscape:window-height="1028"
     inkscape:window-x="0"
     inkscape:window-y="24"
     inkscape:window-maximized="1"
     inkscape:current-layer="layer1" />
  <defs
     id="defs87121" />
  <g
     inkscape:label="Layer 1"
     inkscape:groupmode="layer"
     id="layer1"
     transform="translate(-0.006495,-0.16868251)">
    <path
       style="display:inline;fill:#e9c6af;fill-opacity:1;stroke:none;stroke-width:0.264583px;stroke-linecap:butt;stroke-linejoin:miter;stroke-opacity:1"
       d="m 34.818957,69.327222 c 0,0 13.48328,-0.21847 15.53295,-0.0596 2.04967,0.15891 14.441107,1.09481 15.071377,1.27925 0.63026,0.18443 1.62157,1.02136 1.92218,1.60314 0.30061,0.58178 0.75228,1.32051 1.09241,1.86711 0.34012,0.54661 0.46073,2.51194 0.46073,3.27367 0,0.76172 0.32115,2.34776 0.32115,3.11284 0,0.76509 -0.22145,3.73456 0.0474,4.58957 0.26885,0.85501 1.19751,6.25713 1.11252,8.37891 -0.085,2.12179 -0.22606,11.281138 -0.0147,12.495408 0.21132,1.21427 1.63601,3.31219 2.06519,4.51776 0.42917,1.20558 4.79197,2.66129 5.99585,3.60424 1.20387,0.94294 2.782,1.66198 3.26116,1.66198 0.47916,0 2.33343,-0.16251 4.41839,0.59873 2.08497,0.76125 2.93873,0.40843 3.27756,0.58671 0.33883,0.17827 0.53371,0.41945 0.53371,0.6962 0,0.27674 -0.37816,0.54307 -0.57321,0.67628 -0.19506,0.1332 0.13609,0.58366 -0.18837,0.78737 -0.32446,0.20372 -1.46457,0.4299 -1.62994,0.56486 -0.16538,0.13496 -2.37967,0.34751 -2.58518,0.37755 -0.20552,0.03 -0.67881,-0.0375 -0.81438,0.15739 -0.13556,0.19486 -16.01198,1.51445 -16.01198,1.51445 0,0 -3.44533,0.30526 -4.16261,0.24939 -0.71728,-0.0559 -1.64396,-0.67877 -1.82086,-1.24756 -0.1769,-0.5688 -0.46447,-2.15014 -0.34901,-2.64576 0.11546,-0.49563 0.39134,-1.66579 0.63153,-2.07382 0.24018,-0.40802 0.96136,-3.80386 0.96136,-3.80386 L 57.190467,93.030192 c 0,0 0.35779,-5.89517 0.41538,-6.69966 0.0576,-0.80449 0.32571,-2.92056 0.25671,-3.19654 -0.069,-0.27599 -2.8468,-0.571 -3.71816,0.0397 -0.87136,0.61067 -8.5165,5.04838 -11.64139,5.74941 -3.12488,0.70103 -8.29763,1.0762 -11.1407,0.96837 -2.84307,-0.10782 -2.6815,-19.74717 -2.6815,-19.74717 z"
       id="path5144" />
    <path
       style="display:inline;fill:#e3b08a;fill-opacity:1;stroke:none;stroke-width:0.264583px;stroke-linecap:butt;stroke-linejoin:miter;stroke-opacity:1"
       d="m 32.372687,89.936142 c 0,0 7.73685,-0.34901 10.20971,-1.04445 2.47286,-0.69544 1.14243,-2.11012 0.874,-2.25186 -0.26842,-0.14174 -7.33246,-1.60916 -7.33246,-1.60916 l -4.22944,4.14286 z"
       id="path43409" />
    <path
       style="display:inline;fill:#e3b08a;fill-opacity:1;stroke:none;stroke-width:0.264583px;stroke-linecap:butt;stroke-linejoin:miter;stroke-opacity:1"
       d="m 52.938797,83.914672 c 0,0 1.22141,-0.83213 1.46939,-0.89234 0.24798,-0.0602 0.81247,-0.25942 1.49778,-0.25942 0.68532,0 1.572,0.22818 1.93684,0.25822 0.36484,0.03 -0.33018,4.62971 -0.36022,5.77015 -0.03,1.14043 -0.2922,3.09004 -0.2922,3.09004 l 5.486207,8.782898 c 0,0 1.19795,-3.894158 1.52595,-4.623968 0.32801,-0.72981 0.36334,-0.9061 0.16396,-1.14544 -0.19939,-0.23934 -1.16244,-1.82652 -1.16244,-2.22454 0,-0.39803 -0.19556,-5.04927 -0.3321,-5.39517 -0.13653,-0.3459 -1.43383,-3.32796 -1.28318,-3.72888 0.15066,-0.40092 -0.6953,-1.12642 -0.66526,-1.43668 0.03,-0.31027 -0.3343,-0.16688 -0.41902,0.15539 -0.0847,0.32226 -1.11362,1.45751 -1.16652,1.62475 -0.0529,0.16723 -0.692187,1.51806 -0.692187,0.812 0,-0.70607 0.20925,-1.93669 0.52809,-2.5182 0.318847,-0.58152 1.819927,-2.1503 2.589557,-2.1503 0.76963,0 1.64413,-0.61159 2.395,-0.67215 0.75087,-0.0606 -0.38519,-1.1153 -0.77509,-1.21523 -0.38989,-0.0999 -1.22592,-0.51491 -2.07593,-0.54495 -0.85001,-0.03 -4.704167,0.40319 -5.003157,0.40319 -0.29899,0 -2.65596,0.23912 -3.21033,0.23912 -0.55438,0 -1.40759,0.8354 -1.74672,0.87794 -0.33913,0.0425 -2.10771,1.12472 -2.10771,1.12472 z"
       id="path48448" />
    <path
       style="display:inline;fill:#e5b99b;fill-opacity:1;stroke:none;stroke-width:0.264583px;stroke-linecap:butt;stroke-linejoin:miter;stroke-opacity:1"
       d="m 72.845414,113.70554 c 0,0 4.1964,2.14532 4.54383,2.14532 0.34744,0 2.07545,1.70343 2.41729,1.82417 0.34183,0.12075 0.94571,-0.43127 1.40198,-0.19355 0.45626,0.23772 2.19046,0.611 2.7302,0.611 0.53973,0 1.17118,0.39402 2.08218,0.31351 0.911,-0.0805 1.16155,-0.21172 1.64805,-0.25175 0.4865,-0.04 1.8262,-0.70501 2.04338,-0.90597 0.21719,-0.20097 0.12505,0.52935 -0.0821,0.81603 -0.2072,0.28667 -0.31958,0.33942 -0.30467,0.64774 0.0149,0.30832 -1.64563,0.7785 -1.64563,0.7785 0,0 -2.66687,0.46758 -3.03467,0.43305 -0.36781,-0.0345 -0.66619,0.22687 -0.66619,0.22687 0,0 -2.79711,-0.21407 -3.05983,-0.21407 -0.26271,0 -7.9901,-4.55472 -7.9901,-4.55472 z"
       id="path56758" />
    <path
       style="display:inline;fill:#e9c6af;fill-opacity:1;stroke:none;stroke-width:0.264583px;stroke-linecap:butt;stroke-linejoin:miter;stroke-opacity:1"
       d="m 25.451117,21.375272 c 0,0 -3.88585,0.8796 -5.36688,1.41551 -1.48103,0.5359 -4.57084,0.94732 -5.43935,1.27318 -0.868512,0.32585 -1.239259,1.15369 -2.037277,1.37561 -0.798018,0.22192 -2.499934,1.27065 -3.4617982,2.73257 -0.961861,1.46191 -3.644712,4.15533 -3.923064,4.49249 -0.278352,0.33715 -1.132157,2.4326 -1.085723,3.24348 0.04644,0.81088 -0.950452,1.73834 -0.842822,3.24038 0.10763,1.50204 -0.929545,5.66611 -1.032793,6.15467 -0.103249,0.48855 -0.726337,4.67219 -0.726337,5.21578 0,0.54359 0.203147,2.38491 -0.03495,3.4617 -0.2380984,1.07678 0.452126,4.32227 0.75497,5.07273 0.302845,0.75047 0.668515,1.6098 0.159092,3.28924 -0.509421,1.67944 -0.9493364,3.33014 -1.0019434,4.67531 -0.05261,1.34517 1.0589894,2.13303 -0.149622,4.05993 -1.20861401,1.92689 -1.32192701,7.91725 -1.23236301,10.39672 0.08957,2.47947 0.912733,6.00045 1.23731601,6.32884 0.3245834,0.32839 2.1836784,0.61345 2.1836784,0.61345 0,0 3.739046,0.8271 5.498785,0.97297 1.7597362,0.14587 13.5374212,2.33642 14.3495012,2.36402 0.81207,0.0276 5.01336,-0.7251 5.97703,-0.9313 0.96367,-0.20619 4.49625,-1.44518 6.20423,-2.38726 1.70798,-0.94207 3.13607,-2.09854 3.7738,-2.06231 0.63772,0.0362 1.98303,0.57432 2.29483,1.5416 0.31179,0.96728 1.88662,4.90308 2.02402,5.61821 0.1374,0.71513 2.77688,9.476438 7.71012,11.979638 4.93325,2.5032 4.55678,3.92504 8.397727,7.77823 3.84094,3.85319 6.72181,6.21874 6.80677,6.90885 0.0849,0.69011 1.33661,2.92046 1.33661,2.92046 0,0 0.78811,2.30791 0.78811,2.72323 0,0.41531 0.88125,2.49736 1.70586,3.15299 0.82461,0.65564 4.09454,0.83443 4.8338,1.24777 0.73927,0.41335 4.89214,2.01715 5.96768,1.45865 1.07553,-0.55849 2.34802,-1.32929 2.79272,-1.41425 0.4447,-0.0849 0.89277,0.0874 1.58363,-0.26772 0.69087,-0.3551 0.7441,-0.3551 0.7441,-0.3551 0,0 1.33433,0.6896 2.09247,0.0779 0.75815,-0.61173 0.69967,-0.95862 0.69967,-0.95862 0,0 1.39373,1.10087 2.13488,0.4703 0.741145,-0.63057 0.915515,-0.73932 0.945545,-1.13599 0.03,-0.39666 0.74693,0.4709 1.25277,0.36538 0.50584,-0.10553 1.28248,-0.25555 1.46196,-0.52542 0.17947,-0.26986 0.40189,-0.90035 0.38001,-1.07445 -0.0219,-0.1741 1.57044,-0.11136 1.97805,-0.95382 0.4076,-0.84247 0.58712,-0.7738 0.64382,-1.26558 0.0567,-0.49179 -0.90464,-0.60496 -0.90464,-0.60496 0,0 -2.7343,-0.83194 -2.97048,-0.94971 -0.23619,-0.11777 -5.897055,-1.2816 -7.053325,-1.72043 -1.15627,-0.43882 -7.03939,-3.32883 -8.89308,-3.9835 -1.85369,-0.65468 -3.64491,-3.03756 -6.58277,-5.0437 -2.93786,-2.00615 -10.30175,-16.430118 -10.95984,-17.429068 -0.6581,-0.99894 -6.568547,-8.88024 -7.289457,-10.76796 -0.72091,-1.88772 -1.40624,-3.54454 -1.6611,-4.62161 -0.25486,-1.07707 0.19269,-1.06935 -0.17598,-1.96158 -0.36866,-0.89222 -0.70919,-3.5739 -1.7552,-4.94906 -1.04602,-1.37515 -1.70364,-1.44004 -2.83839,-1.63228 -1.13475,-0.19225 -6.09983,-0.28157 -7.05808,-0.68273 -0.95825,-0.40115 -6.33577,-1.75031 -8.81153,-1.75031 -2.47575,0 2.97592,-8.48732 2.97592,-8.48732 0,0 0.58885,-3.72918 1.02585,-4.0497 0.437,-0.32052 2.62967,-1.31265 2.91909,-1.80473 0.28941,-0.49207 0.32612,-1.83134 0.67599,-2.11999 0.34986,-0.28865 0.58974,3.36961 1.87416,4.54664 1.28443,1.17703 2.91574,3.62794 3.03061,3.99772 0.11487,0.36978 11.88298,4.98111 11.88298,4.98111 l 5.451797,0.42896 3.55468,0.75914 c 0,0 0.24047,1.2075 1.74775,2.27049 1.50729,1.06299 1.98738,1.3659 1.98738,1.3659 0,0 -0.21701,1.22006 0.40917,1.62779 0.62617,0.40773 1.2431,-0.0445 1.2431,-0.0445 0,0 0.0252,-0.59803 0.43222,-0.004 0.40703,0.59435 1.56647,0.75212 1.63954,0.22622 0.0731,-0.52591 0.17507,-0.44957 0.25489,-0.1267 0.0798,0.32287 0.85319,0.76381 1.09542,0.30003 0.24222,-0.46378 0.12248,-0.7758 0.23754,-1.27151 0.11505,-0.49572 -0.22486,-0.52162 0.11917,-0.6972 0.34403,-0.17559 1.42888,-2.2076 0.98497,-3.49791 -0.44392,-1.29031 -3.18843,-4.70402 -3.18843,-4.70402 0,0 -0.73506,-0.58029 -1.29316,-0.76923 -0.5581,-0.18893 -2.07333,-1.31564 -2.2601,-1.52778 -0.18678,-0.21213 -1.4508,-0.96722 -3.40159,-0.74661 -1.95079,0.2206 -1.72006,0.24049 -2.33747,0.31079 -0.6174,0.0703 -0.85444,0.95906 -1.65379,1.13757 -0.79935,0.17851 -3.093727,-0.92654 -4.154577,-0.93731 -1.06084,-0.0108 -2.89494,0.19926 -3.18044,0.82977 -0.28549,0.63052 -1.05173,-0.57518 -1.55636,-0.87133 -0.50464,-0.29615 -0.50346,-1.48094 -0.62366,-1.78651 -0.12021,-0.30558 -1.9907,-6.88733 -2.44269,-7.15772 -0.452,-0.2704 -0.0742,-4.48858 0.0448,-5.09328 0.11898,-0.60469 0.30041,-3.83955 -0.30725,-5.04272 -0.60765,-1.20317 -1.75598,-4.13359 -2.29968,-4.60159 -0.54369,-0.468 -1.27493,-0.99425 -1.76651,-1.22372 -0.49158,-0.22947 -1.65357,-0.32336 -2.25312,-1.08707 -0.59954,-0.76371 -1.20663,-0.92387 -1.47098,-1.37691 -0.26436,-0.45304 -0.73862,-0.97281 -1.0401,-1.54651 -0.30148,-0.57372 -1.11267,-1.48364 -1.11267,-1.48364 0,0 4.58476,-5.42032 4.72869,-5.71351 0.14393,-0.29318 1.58145,-2.77903 1.62392,-3.14637 0.0425,-0.36733 0.0509,-0.54711 0.49655,-0.62232 0.44562,-0.0752 1.58279,-0.12891 2.44858,-1.05132 0.86579,-0.92242 1.31247,-1.69042 1.3936,-2.31646 0.0811,-0.62605 -0.44998,-1.35486 -0.7178,-1.43922 -0.26781,-0.0844 -0.88252,-0.39859 -1.80193,-0.16167 -0.91942,0.23693 -0.71547,0.43837 -1.15579,0.57616 -0.44032,0.1378 0.33995,1.5191 -0.17847,1.72989 -0.51843,0.21079 0.007,-0.81322 -0.54986,-0.49318 -0.55667,0.32003 -1.06504,1.71571 -0.86856,2.32654 0.19648,0.61083 0.19091,1.67487 -0.13528,1.67487 -0.3262,0 -0.43711,1.63707 -0.64181,1.40541 -0.20471,-0.23166 -0.12902,1.36747 -0.67767,1.32312 -0.54865,-0.0443 -1.36039,1.75163 -2.36352,1.58824 -1.00313,-0.16339 -1.13213,0.21246 -1.82847,0.34056 -0.69633,0.1281 -1.27154,0.45127 -1.68356,0.41342 -0.41202,-0.0378 -1.00799,0.0103 -1.84377,-0.19848 -0.83578,-0.20874 -3.28087,0.21864 -3.67346,0.0105 -0.39259,-0.20819 -2.47344,-0.78196 -2.5852,-1.03473 -0.11176,-0.25276 -0.8225,-1.17744 -1.45871,-1.40345 -0.63622,-0.22602 -1.26892,-1.27813 -1.19665,-1.72391 z"
       id="path1274" />
    <path
       style="fill:#e5b898;fill-opacity:1;stroke:none;stroke-width:0.264583px;stroke-linecap:butt;stroke-linejoin:miter;stroke-opacity:1"
       d="m 1.5915188,52.730332 c 0,0 0.02527,-1.49703 -0.0024,-1.84013 -0.0277,-0.34309 0.566655,-3.92834 0.784587,-5.22656 0.217935,-1.29822 0.191834,-1.44129 0.362453,-2.22602 0.170617,-0.78473 0.711314,-2.25528 0.711314,-2.25528 l 2.898658,0.10832 3.572103,1.57712 c 0,0 -1.82676,0.0791 -2.216595,0.48913 -0.389832,0.41004 -1.229886,1.73849 -1.552493,2.0712 -0.322606,0.33271 -0.817507,1.2732 0.02283,1.3493 0.840332,0.0761 1.082098,-1.80487 1.602115,-1.96119 0.520018,-0.15632 2.5913432,-0.0865 2.7958312,0.067 0.204489,0.15346 0.494522,2.04565 0.494522,2.04565 l -2.1566662,1.6734 -4.318936,4.42988 -2.42402,1.72916 z"
       id="path80717" />
    <path
       style="fill:#e5b898;fill-opacity:1;stroke:none;stroke-width:0.264583px;stroke-linecap:butt;stroke-linejoin:miter;stroke-opacity:1"
       d="m 4.3330018,53.326802 c 0,0 1.793192,-2.73471 2.541913,-2.98754 0.748723,-0.25283 2.331251,-0.56378 2.442763,0.16019 0.111514,0.72396 -0.257495,1.43071 0.339494,1.52473 0.5969932,0.094 0.4720832,1.58387 0.4720832,1.58387 0,0 0.944767,3.01596 1.490324,3.007 0.54556,-0.009 3.345808,1.0783 3.345808,1.0783 0,0 1.92203,0.0808 2.2017,0.5188 0.27968,0.43802 5.45373,7.75162 5.45373,7.75162 l 5.41589,2.18326 c 0,0 -1.1031,0.1093 -2.17371,0.041 -1.0706,-0.0682 -4.22098,-1.43924 -5.52878,-1.43924 -1.30781,0 -4.80005,-1.25144 -5.52987,-1.84185 -0.729813,-0.59041 -2.912692,-2.51839 -3.33848,-2.68361 -0.425789,-0.16522 2.49827,-0.38447 2.49827,-0.38447 0,0 1.74355,-0.89294 0.89701,-1.48705 -0.846538,-0.5941 -5.2481182,-1.7769 -5.7175472,-2.29222 -0.469426,-0.51532 -1.758772,-0.5169 -2.024644,0.0787 -0.265872,0.5956 0.134289,1.6996 0.134289,2.17382 0,0.47422 -0.224033,1.13008 0.335362,2.10397 0.559398,0.97388 0.143439,1.96411 0.406823,2.39805 0.263385,0.43393 -0.282373,2.28166 0.375569,3.56678 0.657944,1.28512 -4.559218,1.38683 -4.857105,1.32547 -0.297884,-0.0614 -1.585719,-0.15987 -1.585719,-0.15987 0,0 -0.07565,-1.40516 -0.22171,-1.8166 -0.146061,-0.41143 -0.184127,-1.85068 0.02389,-2.53223 0.208013,-0.68154 0.968211,-4.11022 0.943981,-4.97084 -0.02424,-0.86061 -0.967121,-2.82944 -0.491144,-4.41111 0.475978,-1.58167 2.149811,-2.48899 2.149811,-2.48899 z"
       id="path83901" />
    <path
       style="display:inline;fill:#e3b08a;fill-opacity:1;stroke:none;stroke-width:0.264583px;stroke-linecap:butt;stroke-linejoin:miter;stroke-opacity:1"
       d="m 2.6614938,59.443462 c 0,0 0.470053,-2.37355 1.010973,-2.94547 0.540919,-0.57192 1.012066,-1.38965 1.44028,-2.41503 0.428215,-1.02537 1.179426,-1.61626 1.743583,-2.03747 0.564161,-0.4212 0.699786,-1.95013 1.883357,-2.28317 1.183574,-0.33305 0.299488,-1.2319 1.4466072,-1.72959 1.147122,-0.49768 0.843174,-0.64705 1.147122,-1.1754 0.303946,-0.52834 0.04262,-1.54146 0.04262,-1.54146 0,0 -1.5473362,2.273 -2.0244782,2.55684 -0.477141,0.28384 -2.17215,-0.48013 -2.17215,-0.48013 0,0 -1.228341,0.85319 -1.228341,1.4906 0,0.63741 -0.561866,1.84578 -1.554419,2.39256 -0.99255,0.54678 -0.676921,-1.19018 -1.624862,-0.46249 -0.947941,0.72768 -0.07604,1.90361 -0.305922,2.51307 -0.22988,0.60946 -0.931423,-1.00248 -0.931423,-1.00248 0,0 -0.2662324,4.91851 1.127051,7.11962 z"
       id="path67375" />
    <path
       style="display:inline;fill:#e3b08a;fill-opacity:1;stroke:none;stroke-width:0.264583px;stroke-linecap:butt;stroke-linejoin:miter;stroke-opacity:1"
       d="m 3.3272118,41.815642 c 0,0 1.491996,0.79389 2.476894,0.42279 0.984901,-0.3711 3.588406,1.1842 3.588406,1.1842 0,0 1.5372192,0.76425 1.8563782,0.47273 0.319162,-0.29152 -0.871045,-7.66259 -1.5058682,-7.99281 -0.634823,-0.33022 -1.300255,-3.4899 -1.300255,-3.4899 0,0 -0.364302,2.72481 -0.05855,4.40294 0.305748,1.67812 -1.237667,2.51512 -1.693574,2.47586 -0.455903,-0.0393 -1.787572,0.92897 -2.520084,0.52918 -0.732513,-0.3998 -0.982232,-0.85141 -0.982232,-0.35035 0,0.50107 0.138888,2.34536 0.138888,2.34536 z"
       id="path68757" />
    <path
       style="display:inline;fill:#e3b08a;fill-opacity:1;stroke:none;stroke-width:0.264583px;stroke-linecap:butt;stroke-linejoin:miter;stroke-opacity:1"
       d="m 7.4912268,53.212872 c 0,0 0.770364,0.82321 2.345301,0.81919 1.5511632,0.12296 2.0235882,0.28831 2.8992812,0.47291 0.875694,0.1846 2.083498,0.52199 1.981938,0.22676 -0.15113,-0.43932 -2.723984,-1.79212 -3.301363,-1.99377 -0.965389,-0.33715 -1.281993,-1.23663 -1.5535322,-1.27911 -0.271537,-0.0425 -1.45066,0.43057 -1.512195,0.61165 -0.06153,0.18108 -0.387199,1.14066 -0.85943,1.14237 z"
       id="path72801"
       sodipodi:nodetypes="cczssssc" />
    <path
       style="display:inline;fill:#e3b08a;fill-opacity:1;stroke:none;stroke-width:0.264583px;stroke-linecap:butt;stroke-linejoin:miter;stroke-opacity:1"
       d="m 5.3613228,55.762852 c 0,0 0.288949,0.96983 0.976879,1.09726 0.687933,0.12743 2.197812,-0.30328 3.7272832,-0.24393 1.529472,0.0594 3.607906,1.42012 3.982797,1.58923 0.374895,0.1691 1.364935,0.36797 1.566245,0.0576 0.20131,-0.31038 0.21291,-1.83896 0.15284,-2.11048 -0.0601,-0.27151 -0.29366,-0.0479 -1.09529,-0.0479 -0.801624,0 -2.336922,-0.27937 -2.924138,-0.27937 -0.587219,0 -2.8828582,-0.30692 -3.4870572,-0.43925 -0.6042,-0.13233 -2.714824,-0.19627 -2.899559,0.37684 z"
       id="path74666" />
    <path
       style="display:inline;fill:#e3b08a;fill-opacity:1;stroke:none;stroke-width:0.264583px;stroke-linecap:butt;stroke-linejoin:miter;stroke-opacity:1"
       d="m 8.9363998,59.291582 c 0,0 1.2650102,1.7435 2.2022992,1.7435 0.937289,0 2.553861,-0.30083 3.516688,-0.0601 0.96283,0.24076 1.00764,1.69127 0.68572,2.13062 -0.32192,0.43934 -3.296152,-0.48465 -5.28516,-1.13731 -1.9890052,-0.65266 -2.4200692,-0.61922 -3.0504892,-0.77016 -0.630421,-0.15095 0.259437,-1.99022 1.177356,-2.22308 0.917919,-0.23286 0.753586,0.3165 0.753586,0.3165 z"
       id="path76088" />
    <path
       style="display:inline;fill:#e3b08a;fill-opacity:1;stroke:none;stroke-width:0.264583px;stroke-linecap:butt;stroke-linejoin:miter;stroke-opacity:1"
       d="m 3.8797148,69.312402 c 0,0 1.361662,0.90449 3.490505,0.48226 2.128845,-0.42224 7.6887272,-0.0877 8.2698272,-0.0496 0.58111,0.0381 1.85925,1.06749 2.32902,1.02746 0.46977,-0.04 3.84605,-0.71777 3.84605,-0.71777 0,0 -2.19697,-0.98502 -3.3151,-1.33751 -1.11814,-0.3525 -2.11008,-1.64383 -2.42055,-1.64383 -0.31046,0 -1.67939,0.79211 -2.739615,0.56733 -1.060225,-0.22477 -2.390833,-0.93933 -3.200521,-0.81945 -0.8096892,0.11986 -1.6565412,0.64188 -2.2235772,1.03638 -0.567037,0.39451 -3.060925,0.9289 -3.896611,0.84548 -0.83569,-0.0834 -0.139428,0.60923 -0.139428,0.60923 z"
       id="path77747" />
    <path
       style="fill:#e7bfa3;fill-opacity:1;stroke:none;stroke-width:0.264583px;stroke-linecap:butt;stroke-linejoin:miter;stroke-opacity:1"
       d="m 14.700657,90.351612 6.05252,1.07907 c 0,0 7.48861,-0.20866 9.11131,-0.67546 1.62269,-0.46681 5.95316,-2.75496 6.47449,-2.75496 0.52133,0 1.85863,-1.21941 2.6669,-1.3653 0.80827,-0.14589 -1.0377,-0.93252 -2.35689,-0.93252 -1.31919,0 -3.03542,-0.30918 -5.0952,-0.0545 -2.05978,0.25471 -2.0534,0.43955 -3.48065,0.43955 -1.42726,0 -8.29501,0.99359 -9.66584,1.47342 -1.37083,0.47984 -4.224353,0.34364 -5.513122,0.59738 -1.28877,0.25374 -4.6246792,0.29675 -4.9614062,0.40438 -0.336724,0.10764 -0.424153,0.47402 -0.165415,0.47402 0.258739,0 6.9333032,1.31489 6.9333032,1.31489 z"
       id="path59987" />
    <path
       style="display:inline;fill:#e7bfa3;fill-opacity:1;stroke:none;stroke-width:0.264583px;stroke-linecap:butt;stroke-linejoin:miter;stroke-opacity:1"
       d="m 13.23595,81.158402 c 0,0 8.663857,3.6502 10.472657,3.91888 1.8088,0.26869 9.57344,-1.57025 10.67122,-1.6621 1.09777,-0.0918 -1.15052,-0.86785 -1.50029,-0.86785 -0.34977,0 -5.13823,0.2155 -6.03106,0.2155 -0.89282,0 -5.56528,-1.76701 -7.05961,-1.68205 -1.49433,0.085 -5.09198,-0.67605 -5.59073,-0.4317 -0.498748,0.24435 -0.962187,0.50932 -0.962187,0.50932 z"
       id="path61193" />
    <path
       style="display:inline;fill:#e7bfa3;fill-opacity:1;stroke:none;stroke-width:0.264583px;stroke-linecap:butt;stroke-linejoin:miter;stroke-opacity:1"
       d="m 15.036397,70.703952 c 0,0 1.14416,0.10633 3.54903,-0.47689 2.40487,-0.58322 6.45934,-1.10792 7.31915,-1.10792 0.85982,0 3.72633,-0.6786 4.11589,-0.6786 0.38955,0 4.12652,0.37962 4.12652,0.37962 0,0 -2.62453,-0.0614 -5.31894,0.83098 -1.90578,0.63119 -4.01646,2.27768 -4.50724,2.38285 -1.18465,0.25384 -1.62844,-0.12144 -3.14991,-0.19632 -1.52148,-0.0749 -3.40755,0.26376 -3.8765,0.75913 -0.46895,0.49537 -3.364095,-0.99907 -5.006269,-0.6686 -1.642171,0.33048 2.748269,-1.22426 2.748269,-1.22426 z"
       id="path64815"
       sodipodi:nodetypes="cssscssssscc" />
    <path
       style="display:inline;fill:#e9c6af;fill-opacity:1;stroke:none;stroke-width:0.264583px;stroke-linecap:butt;stroke-linejoin:miter;stroke-opacity:1"
       d="m 8.7738638,35.710142 c 0,0 0.887481,3.90251 1.134877,4.89826 0.2473962,0.99575 0.3433752,3.32322 0.5785912,4.53747 0.242253,1.25058 1.300713,6.03964 2.361779,7.68144 1.190965,1.8428 2.518756,3.13554 2.665246,3.75948 0.14648,0.62393 4.77784,8.00361 4.77784,8.00361 0,0 1.15734,1.78444 3.51524,2.47676 2.35791,0.69232 7.95543,1.58765 9.10255,1.58765 1.14712,0 12.38913,-0.89933 13.1049,-0.89835 0.71576,0.001 0.61901,0.14153 1.64517,0.14153 1.02616,0 4.12191,0.58637 4.85531,0.58637 0.73339,0 2.66331,0.12755 3.4954,0.12755 0.83209,0 3.482447,-0.29686 4.103957,-0.29686 0.62151,0 1.837,-1.13448 2.55163,-0.95063 0.71462,0.18385 2.06761,0.87322 2.44703,0.98964 0.37942,0.11641 -0.19378,-0.0378 0.61245,0.36689 0.80626,0.40467 2.68397,0.37557 2.68397,0.37557 0,0 0.35369,-0.80773 -0.25444,-1.09453 -0.60813,-0.28679 -4.09008,-1.96177 -4.50921,-2.63832 -0.41912,-0.67656 -1.35122,-1.07188 -1.46838,-1.45283 -0.11717,-0.38095 -4.677627,-2.52035 -5.396837,-2.76959 -0.71922,-0.24924 -2.24578,-0.86389 -3.39634,-0.73949 -1.15056,0.12439 -5.88959,1.27784 -6.50177,1.11885 -0.61217,-0.15899 -12.06816,-2.79307 -13.2248,-3.3325 -1.15665,-0.53944 -3.95957,-2.19689 -5.47199,-2.02395 -1.51241,0.17295 -1.10927,-1.3115 -1.29949,-1.82278 -0.19023,-0.51127 -0.22503,-1.42639 -0.54361,-2.42729 -0.31857,-1.00091 -2.06981,-6.34072 -2.43717,-7.09271 -0.36736,-0.75199 -0.86712,-2.01073 -1.03171,-2.65883 -0.16926,-0.66655 -0.66702,-0.77749 -0.66702,-1.95158 0,-1.17409 0.87534,-5.18611 0.75532,-6.99586 -0.12002,-1.80975 -1.71931,-4.62064 -3.58991,-5.58269 -1.8706,-0.96205 -4.49917,-1.28952 -6.35654,-0.98596 -1.85737,0.30355 -4.6614322,3.17106 -4.8965672,4.81213 -0.235135,1.64107 -0.127053,2.63729 0.654524,4.25155 z"
       id="path3043"
       sodipodi:nodetypes="csssscsscssssssscsssssssssssssssssc" />
    <path
       style="display:inline;fill:#e7bfa3;fill-opacity:1;stroke:none;stroke-width:0.264583px;stroke-linecap:butt;stroke-linejoin:miter;stroke-opacity:1"
       d="m 18.124727,40.093512 c 0,0 2.39808,-3.83687 2.39808,-5.63046 0,-1.7936 0.46836,-3.40409 -1.68309,-5.46203 -2.15146,-2.05795 -2.73198,-2.36263 -2.73198,-2.36263 0,0 3.18429,0.25219 4.64101,2.03467 1.45672,1.78247 2.03577,3.37125 2.17983,4.36264 0.14406,0.99138 -0.45942,4.6232 -0.45942,4.96856 0,0.34537 -0.54637,2.09184 0.0924,3.58196 0.63872,1.49011 3.47062,9.05611 3.70917,10.15767 0.23855,1.10155 0.64827,2.81034 0.76805,3.31944 0.11978,0.50911 0.67785,1.13185 0.0906,1.07242 -0.58721,-0.0594 -2.76921,-1.52527 -2.80607,-2.60826 -0.0369,-1.08299 -0.63924,-2.4143 -0.91652,-2.93773 -0.27729,-0.52344 -1.34805,-6.5349 -1.4213,-6.98473 -0.0732,-0.44983 -0.24014,-2.94474 -0.92899,-2.17652 -0.68885,0.76822 -1.21166,1.16358 -2.0792,1.18362 -0.86753,0.02 -2.09576,0.33718 -2.52998,-0.2195 -0.43421,-0.55668 0.84841,-0.76854 1.67743,-2.29912 z"
       id="path33386" />
    <path
       style="display:inline;fill:#e7bfa3;fill-opacity:1;stroke:none;stroke-width:0.264583px;stroke-linecap:butt;stroke-linejoin:miter;stroke-opacity:1"
       d="m 14.747127,26.633122 c 0,0 -3.234461,0.93337 -3.065453,3.15068 0.169011,2.2173 1.359051,3.05433 1.418373,3.86537 0.05933,0.81104 -0.893998,3.77553 0.02241,4.85995 0.916417,1.08443 1.6516,3.46386 0.299252,5.76156 -1.352346,2.29769 2.166778,4.53084 2.639008,5.97342 0.47224,1.44257 1.72614,1.05708 2.29548,2.6489 0.56935,1.59181 0.1532,4.03694 0.39348,4.94104 0.24029,0.9041 2.33388,3.40058 2.82968,4.23626 0.47547,0.80142 0.58875,1.34238 0.72507,2.75366 0.74627,1.67618 1.47501,1.42016 3.03564,2.56962 0,0 -1.00818,-0.0155 -1.48057,-0.24201 -0.47238,-0.22654 -2.2034,-1.09732 -2.37637,-1.22875 -1.29309,-0.98246 -4.87463,-6.68963 -5.80255,-8.82573 -0.92793,-2.13609 -2.517368,-3.69931 -2.874323,-4.22473 -0.356955,-0.52543 -2.084869,-6.03254 -2.293866,-7.23338 -0.209,-1.20084 -0.6831332,-6.68697 -1.3856942,-8.57515 -0.702562,-1.88819 -1.507274,-3.84523 -1.08543,-5.42577 0.421844,-1.58054 1.477042,-2.83586 2.3966202,-3.54405 0.919575,-0.70819 2.114105,-1.53436 2.584241,-1.56426 0.470135,-0.0299 1.724992,0.10337 1.724992,0.10337 z"
       id="path35999"
       sodipodi:nodetypes="cssssssssccssssssssscc" />
    <path
       style="display:inline;fill:#e7bfa3;fill-opacity:1;stroke:none;stroke-width:0.264583px;stroke-linecap:butt;stroke-linejoin:miter;stroke-opacity:1"
       d="m 31.376897,68.431092 c 0,0 19.54539,-0.16499 19.9541,-0.32124 0.40871,-0.15624 4.63296,0.30613 5.20078,0.008 0.56781,-0.2984 -2.33094,-2.911 -3.26819,-2.97107 -0.93725,-0.0601 -3.14901,0.21008 -3.84689,0.31377 -5.47168,0.0456 -4.81958,-0.19712 -9.13729,0.36385 -3.16869,0.41169 -5.70062,-1.71024 -10.53076,-0.2146 0.71338,1.25488 -1.54383,0.30591 -1.58611,0.77107 -0.0526,0.5784 -0.69647,1.34915 -1.06021,1.33647 -0.36373,-0.0127 1.07888,0.514 2.41038,0.65024 z"
       id="path38027"
       sodipodi:nodetypes="cssscscsscc" />
    <path
       style="display:inline;fill:#e7bfa3;fill-opacity:1;stroke:none;stroke-width:0.264583px;stroke-linecap:butt;stroke-linejoin:miter;stroke-opacity:1"
       d="m 25.514167,59.008572 c 0,0 0.70337,-1.18499 1.07919,-1.26895 0.37582,-0.084 0.6291,-0.20178 0.83658,-0.1593 0.20747,0.0425 1.1825,0.54374 1.92396,0.27138 0.74146,-0.27236 0.70409,-0.0684 1.28966,0.12849 0.58557,0.19686 -0.28149,0.88648 -0.6454,0.97143 -0.36391,0.0849 -1.35219,0.49444 -1.81894,0.37171 -0.46675,-0.12274 -0.93524,0.20951 -0.99115,0.51923 -0.0559,0.30973 -0.96535,1.10171 -1.12211,1.33293 -0.15676,0.23122 -0.67043,-0.10148 -0.70263,-0.49452 -0.0322,-0.39304 0.15084,-1.6724 0.15084,-1.6724 z"
       id="path40752" />
    <path
       style="fill:#e9c6af;fill-opacity:1;stroke:none;stroke-width:0.264583px;stroke-linecap:butt;stroke-linejoin:miter;stroke-opacity:1"
       d="m 29.883337,12.197792 c 0,0 0.3848,-1.30795 0.66135,-1.53707 0.27654,-0.22912 0.11395,-1.29833 0.73757,-1.49827 0.62363,-0.19994 1.01532,-0.16713 1.01532,-0.61175 0,-0.4446197 0.10939,-0.9814395 0.23875,-1.2458695 0.12937,-0.26444 -0.10717,-1.16785 0.12937,-1.43518 0.23655,-0.26732 0.99997,-0.70849 1.26222,-1.01322 0.26224,-0.30472 1.74503,-1.8743 2.21331,-2.24207 0.46827,-0.36777 1.3273,-0.68553 1.3273,-0.68553 l 0.33925,-0.1071 c 0,0 0.1776,-0.42839 0.30038,-0.42839 0.12278,0 1.76578,0.0458 1.8517,0.0458 0.0859,0 5.73613,1.35703 5.73613,1.35703 l 1.68147,6.3885495 -2.67612,4.41408 -3.9814,2.31171 -5.19701,0.0436 -1.42996,-3.20122 -2.74984,-0.70401 z"
       id="path86424" />
    <path
       style="fill:#28170b;fill-opacity:1;stroke:none;stroke-width:0.264583px;stroke-linecap:butt;stroke-linejoin:miter;stroke-opacity:1"
       d="m 27.947207,13.531392 c 0,0 -1.29322,0.58244 -1.5712,1.64831 -0.27798,1.06588 -0.73831,0.93361 -0.73831,0.93361 0,0 -0.27461,0.64922 -0.41707,1.07161 -0.14245,0.42238 -0.28211,0.70558 -0.31683,0.96523 -0.0347,0.25966 0.25136,0.46391 0.30487,0.68839 0.0535,0.22447 0.15988,0.38505 0.10349,0.75594 -0.0564,0.37089 -0.34387,0.88756 -0.0546,1.19515 0.28932,0.30758 0.29566,0.75874 0.29566,0.89909 0,0.14036 0.29087,1.31642 1.09094,1.44535 0.80008,0.12893 1.03675,1.20127 1.4504,1.51714 0.41365,0.31586 2.06548,0.76836 2.32224,0.87816 0.25676,0.1098 1.2205,0.31845 1.94896,0.0893 0.72846,-0.22911 3.48765,0.35441 3.8433,0.31637 0.35566,-0.038 1.13219,-0.38783 1.46375,-0.42778 0.33156,-0.04 0.84129,-0.10259 1.26099,-0.30066 0.41969,-0.19808 0.96814,-0.012 1.494,-0.16432 0.52585,-0.1523 0.71707,-0.89827 1.44313,-1.24357 0.72607,-0.3453 0.89756,-0.59051 0.99777,-0.99372 0.10021,-0.40321 0.0771,-1.38889 0.38347,-1.69077 0.30632,-0.30188 0.78826,-0.95409 0.64474,-1.15792 -0.14352,-0.20383 -0.34647,-1.23155 -0.26454,-1.46804 0.0819,-0.23649 -0.26341,-0.2178 0.20345,-0.92752 0.46685,-0.70972 0.18506,-0.47904 0.4328,-0.56312 0.24774,-0.0841 0.26339,0.17475 0.39868,0.22376 0.1353,0.049 0.26686,0.1229 0.4049,-0.0588 0.13805,-0.18171 0.10983,-0.38496 0.12467,-0.54404 0.0148,-0.15908 -0.1566,-1.00673 -0.0392,-1.05622 0.1174,-0.0495 0.36589,-0.15834 0.45467,-0.28798 0.0888,-0.12964 1.24217,-0.60455 1.88504,-0.37311 0.64287,0.23144 1.18255,0.65493 1.24262,1.06033 0.0601,0.4054 0.0219,1.01289 -0.28383,1.44533 -0.30571,0.43244 -1.03703,1.59529 -1.48488,1.868 -0.44784,0.27271 -1.87004,0.34435 -2.16026,0.59557 -0.29021,0.25121 -0.45322,1.25317 -0.71093,1.60609 -0.25771,0.35292 -1.19239,1.61454 -1.2488,2.0147 -0.0564,0.40018 0.7604,0.23675 0.91646,0.0144 0.15606,-0.22234 0.52938,-0.81112 0.95122,-1.11497 0.42185,-0.30386 1.17267,-0.91811 1.17267,-1.18221 0,-0.26411 0.852,-0.98178 1.11384,-1.15854 0.26183,-0.17677 0.38864,-0.46336 0.0648,-0.43657 -0.3239,0.0268 0.007,-0.19285 0.16553,-0.18342 0.15857,0.009 0.87939,-0.27984 1.01815,-0.48686 0.13877,-0.20701 0.34884,-0.26232 0.57006,-0.42657 0.22122,-0.16424 -0.0127,-0.53119 0.0678,-0.68557 0.0805,-0.15438 0.0208,-0.54687 0.28361,-0.31532 0.2628,0.23155 0.40756,-0.0905 0.54247,-0.18445 0.13492,-0.0939 0.37443,-0.32388 0.37443,-0.48454 0,-0.16065 0.10282,-0.9624 0.46921,-1.25584 0.36639,-0.29343 0.55788,-0.8422 0.55788,-1.12524 0,-0.28303 0.003,-0.44947 0.003,-0.70872 0,-0.25925 0.44641,-0.54947 0.50937,-1.09555 0.063,-0.54609 0.12065,-0.85892 -0.12764,-0.81444 -0.24829,0.0445 0.0386,-0.49021 -0.16294,-0.59205 -0.20149,-0.10184 -0.22651,-0.76155 -0.22651,-0.76155 0,0 0.26836,-0.3494 0.26836,-0.66567 0,-0.31626 -0.69016,-1.28538 -0.80505,-1.45585 -0.11489,-0.1704697 -0.53804,-2.0027995 -1.0466,-2.5533495 -0.50856,-0.55054 -0.64875,-0.11169 -0.70882,-0.35727 -0.0601,-0.24558 -1.06491,-2.26987 -2.089,-2.835 -1.0241,-0.56514 -1.70297,-0.90857 -1.88716,-0.9386 -0.18419,-0.03 -0.99662,-0.48053 -1.0929,-0.48024 -0.0963,2.9e-4 -0.007,-0.10299 -0.0894,-0.28639 -0.0821,-0.1834 -0.63582,-0.26263 -0.76307,-0.26263 -0.12725,0 -1.3709,0.21092 -1.49903,-0.0636 -0.12812,-0.27449 -0.32877,-0.42596 -0.6577,-0.42596 -0.32892,0 -0.42075,0.2761 -0.85281,0.2761 -0.43207,0 -1.19829,-0.11135 -1.44267,0.0155 -0.24439,0.12691 -0.26014,0.53848 -0.54379,0.74127 -0.28366,0.20279 0.0725,0.59512 -0.38744,0.61719 -0.45989,0.0221 -1.70599,0.0652 -1.81575,0.45575 -0.10976,0.39059 -0.41871,1.02601 0.25013,0.97101 0.66884,-0.055 0.62678,-0.4307 0.50806,-0.46208 -0.11872,-0.0314 0.16691,-0.20332 0.4813,-0.22427 0.3144,-0.021 0.50174,-0.11555 0.34107,-0.22041 -0.16066,-0.10486 0.22078,0.0174 0.37026,-0.14285 0.14948,-0.16028 0.14045,-0.4669 0.41584,-0.4669 0.27538,0 0.51616,0.20641 0.7488,0.0596 0.23264,-0.14683 -0.13939,0.39074 0.12535,0.51863 0.26474,0.12789 0.50969,0.22573 0.50969,0.0452 0,-0.18054 0.28022,-0.19025 0.42122,-0.0943 0.141,0.0959 0.37761,-0.12884 0.86097,-0.0209 0.48336,0.1079 0.35243,-0.26386 0.67539,0.007 0.32295,0.27116 0.10663,0.51585 0.3442,0.51585 0.23756,0 0.70243,-0.005 0.98573,-0.0977 0.28329,-0.0922 0.43378,0.38772 0.41255,0.74698 -0.0212,0.35926 -0.21136,0.77941 -0.0533,0.79834 0.158,0.0189 0.10576,0.34025 0.54973,0.36149 0.44397,0.0213 0.80327,-0.12942 1.01637,-0.19384 0.21311,-0.0644 0.64942,0.17541 0.49398,0.45661 -0.15544,0.28119 -0.84891,0.18411 -0.80341,0.5578 0.0455,0.3737 -0.1594,1.14203 0.65831,1.30838 0.81772,0.16636 0.67258,0.0602 0.81808,0.10382 0.1455,0.0436 -0.68757,0.50514 -0.68757,0.6107 0,0.10556 0.28375,0.0667 0.15729,0.4980498 -0.12646,0.43131 -0.19169,1.1120597 0.018,1.5611797 0.20974,0.44913 0.50789,1.17384 -0.0535,1.1937 -0.5614,0.0199 -0.52844,0.0462 -0.48959,0.26446 0.0388,0.21829 0.4098,0.82013 0.18068,0.89521 -0.22912,0.0751 -0.1772,-0.25288 -0.43487,-0.0432 -0.25766,0.2097 -0.51936,0.27111 -0.6031,0.57489 -0.0837,0.30377 -0.0605,0.0959 -0.54371,0.0959 -0.48317,0 -1.14046,0.45091 -1.14046,0.84492 0,0.39401 -0.0338,-0.0902 -0.35146,0.10373 -0.31768,0.19389 -0.0881,0.59103 -0.29062,0.66693 -0.20251,0.0759 -1.28421,0.68798 -1.66277,0.73058 -0.37857,0.0426 -2.46262,0.0245 -2.60296,0.0245 -0.14035,0 -0.99396,0.24175 -0.99396,0.24175 0,0 0.21145,-0.24508 0.0196,-0.46397 -0.19187,-0.21889 -0.40376,-0.3948 -0.46722,-0.76618 -0.0635,-0.37137 -0.35609,-0.46333 -0.67682,-0.72586 -0.32072,-0.26253 -0.0838,-0.99641 -0.57433,-1.17948 -0.49058,-0.18307 -0.2027,-0.12991 -0.63959,-0.5865 -0.43688,-0.45659 0.17184,-0.38312 -0.67502,-0.59736 -0.84687,-0.21423 -1.59224,-0.0237 -2.0026,0.25946 -0.41037,0.28317 -0.70086,0.42031 -1.05726,0.52622 -0.3564,0.10591 -0.53021,0.51843 -0.81919,0.78004 -0.28897,0.26161 -0.58525,0.66664 -0.9589,0.88338 -0.37365,0.21674 -0.53462,0.33607 -0.53462,0.33607 z"
       id="path85545" />
    <path
       style="display:inline;fill:#a4a6ab;fill-opacity:1;stroke:none;stroke-width:0.0390781px;stroke-linecap:butt;stroke-linejoin:miter;stroke-opacity:1"
       d="m 31.806477,69.485682 c 0,0 0.73749,0.54941 0.91073,0.55875 0.17323,0.009 0.78779,0.12232 1.31592,0.18485 0.52812,0.0625 18.96994,2.30353 19.24735,2.29615 0.2774,-0.007 16.515797,-1.90912 16.515797,-1.90912 0,0 -0.0352,-0.0665 0.2627,-0.15109 0.29788,-0.0846 1.43641,-0.58299 1.68032,-0.68317 0.24393,-0.10018 0.20031,-0.3886 0.10272,-0.59051 -0.0976,-0.20192 -8.11548,-20.4699 -8.21472,-20.61134 -0.0992,-0.14144 -0.19692,-0.34086 -0.39994,-0.43123 -0.20304,-0.0904 -17.076677,-3.05615 -17.335137,-3.08248 -0.25847,-0.0263 -0.36813,-0.0115 -0.4728,0.0648 -0.10468,0.0764 -0.34306,0.22858 -0.30141,0.45487 0.0417,0.22629 8.18879,22.55519 8.18879,22.55519 0,0 -1.65534,-0.18596 -1.81286,-0.17664 -0.15751,0.009 -19.63768,1.22466 -19.74652,1.28536 -0.10883,0.0607 0.0591,0.23566 0.0591,0.23566 z"
       id="path7437"
       sodipodi:nodetypes="ccsscssscsscscsscc" />
    <path
       style="display:inline;fill:#95989d;fill-opacity:1;stroke:none;stroke-width:0.264583px;stroke-linecap:butt;stroke-linejoin:miter;stroke-opacity:1"
       d="m 45.463267,45.466322 c 0,0 0.008,0.0784 0.0528,0.28954 0.0443,0.21109 2.07652,5.52191 2.14549,5.67438 0.069,0.15246 1.91507,5.03798 1.98381,5.19533 0.0687,0.15735 5.17754,14.11493 5.17754,14.11493 0,0 0.26938,0.69443 0.67028,0.68109 0.4009,-0.0133 3.24023,-0.30769 3.24023,-0.30769 l 3.420857,-0.32952 c 0,0 -0.42299,-0.29449 -0.65928,-0.26706 -0.23628,0.0274 -2.621507,-0.16864 -3.557377,-0.23587 -0.93588,-0.0672 -1.4079,-0.88156 -1.83911,-1.27963 -0.4312,-0.39806 -1.41444,-2.99599 -1.55942,-3.74817 -0.14499,-0.75217 -2.02545,-7.47942 -2.5175,-7.95033 -0.49205,-0.47091 -4.24969,-8.84366 -4.30635,-9.22091 -0.0567,-0.37725 -0.33246,-1.04387 0.10992,-1.32986 0.44237,-0.286 1.5391,-0.0722 2.05878,-0.10227 0.51968,-0.03 2.1098,-0.0789 2.34771,-0.0789 0.23791,0 0.70865,-0.34118 0.38405,-0.34118 -0.32461,0 -6.49193,-1.12725 -6.49193,-1.12725 0,0 -0.75498,-0.18945 -0.66048,0.36334 z"
       id="path13084"
       sodipodi:nodetypes="cssscsccsssssssssscc" />
    <path
       style="display:inline;fill:#95989d;fill-opacity:1;stroke:none;stroke-width:0.264583px;stroke-linecap:butt;stroke-linejoin:miter;stroke-opacity:1"
       d="m 69.675304,63.802532 c 0,0 2.2524,5.42592 2.2691,5.54108 0.0167,0.11515 0.0907,0.14907 -0.011,0.16463 -0.10173,0.0155 -4.76934,0.55968 -4.76934,0.55968 0,0 0.44512,-0.65288 0.54786,-0.66947 0.10274,-0.0166 1.41187,-0.47034 1.6106,-1.59056 0.30485,-1.71835 -0.49638,-2.40412 -0.57682,-2.87425 -0.0793,-0.4634 0.01,-1.09189 -0.59177,-2.438 -0.25096,-0.58692 -0.46078,-2.03961 -0.7357,-2.55834 -0.39973,-0.75421 -0.71857,-1.75747 -0.69789,-2.32395 0.025,-0.68468 -0.26805,-0.84084 0.025,-1.22713 0.0325,-0.0428 0.33181,0.77585 0.33181,0.77585 z"
       id="path31226"
       sodipodi:nodetypes="csscssscssscc" />
    <path
       style="fill:#7d8089;fill-opacity:1;stroke:none;stroke-width:0.264583px;stroke-linecap:butt;stroke-linejoin:miter;stroke-opacity:1"
       d="m 31.745807,69.241832 c 0,0 -0.0707,0.0976 -0.009,0.15879 0.0615,0.0612 22.08804,1.93113 22.08804,1.93113 l 0.82827,0.0268 c 0,0 -0.20904,-0.32302 -0.27382,-0.50998 -0.0648,-0.18696 -1.04132,-2.73893 -1.04132,-2.73893 0,0 -1.70737,-0.152 -1.92385,-0.152 -0.21649,0 -19.43179,1.19056 -19.66811,1.2842 z"
       id="path18737" />
    <path
       style="fill:#72777e;fill-opacity:1;stroke:none;stroke-width:0.264583px;stroke-linecap:butt;stroke-linejoin:miter;stroke-opacity:1"
       d="m 40.080167,68.708422 7.28934,0.55079 5.76164,-0.38709 -6.87511,-0.60834 z"
       id="path25217" />
  </g>
</svg>
