<?xml version="1.0" encoding="UTF-8" standalone="no"?>
<!-- Created with Inkscape (http://www.inkscape.org/) -->

<svg
   width="98.285263mm"
   height="139.60403mm"
   viewBox="0 0 98.285263 139.60403"
   version="1.1"
   id="svg5"
   inkscape:version="1.2.1 (9c6d41e410, 2022-07-14)"
   sodipodi:docname="orator-icon.svg"
   inkscape:export-filename="/home/danielc/Documents/orator-icon.png"
   inkscape:export-xdpi="96"
   inkscape:export-ydpi="96"
   xmlns:inkscape="http://www.inkscape.org/namespaces/inkscape"
   xmlns:sodipodi="http://sodipodi.sourceforge.net/DTD/sodipodi-0.dtd"
   xmlns="http://www.w3.org/2000/svg"
   xmlns:svg="http://www.w3.org/2000/svg">
  <sodipodi:namedview
     id="namedview7"
     pagecolor="#ffffff"
     bordercolor="#666666"
     borderopacity="1.0"
     inkscape:pageshadow="2"
     inkscape:pageopacity="0.0"
     inkscape:pagecheckerboard="0"
     inkscape:document-units="mm"
     showgrid="false"
     inkscape:zoom="1"
     inkscape:cx="161.5"
     inkscape:cy="207"
     inkscape:window-width="1441"
     inkscape:window-height="1022"
     inkscape:window-x="355"
     inkscape:window-y="24"
     inkscape:window-maximized="0"
     inkscape:current-layer="layer6"
     showguides="true"
     inkscape:guide-bbox="true"
     width="209mm"
     inkscape:showpageshadow="2"
     inkscape:deskcolor="#d1d1d1" />
  <defs
     id="defs2">
    <linearGradient
       id="linearGradient1284"
       inkscape:swatch="gradient">
      <stop
         style="stop-color:#0000e0;stop-opacity:1;"
         offset="0"
         id="stop1280" />
      <stop
         style="stop-color:#000000;stop-opacity:0;"
         offset="1"
         id="stop1282" />
    </linearGradient>
  </defs>
  <g
     inkscape:groupmode="layer"
     id="layer6"
     inkscape:label="scroll"
     style="display:inline"
     transform="translate(-0.06776155,-0.22484792)">
    <path
       d="m 52.310607,52.649377 c 0,0 -3.575079,-2.31703 -3.144453,-3.80018 0.430626,-1.48315 -1.141085,-13.09417 -2.706708,-16.49626 -1.565624,-3.40211 1.217749,-7.10872 1.217749,-7.10872 1.046505,-1.26471 3.437721,-0.79526 4.770187,-1.35371 1.880637,-0.78819 2.242504,-0.003 3.159815,-1.87683 0.917308,-1.87413 0.715986,-6.62809 0.238216,-6.47934 -0.477768,0.14875 -1.71083,-1.87591 -1.71083,-1.87591 -2.02343,-2.15898 -1.191438,-3.7343499 -1.191438,-3.7343499 0,0 0.05676,-0.44592 1.029217,-0.10555 0,0 -0.897379,-6.727976 3.062667,-8.701157 3.435045,-1.711588 6.491845,0.139498 7.051465,0.483741 0.55961,0.344245 2.05825,1.639506 2.19005,3.216011 0.13179,1.576505 1.33135,4.593435 1.33135,4.593435 0.56066,0.16811 0.85477,-0.27894 0.26704,2.3747099 -0.58773,2.65364 -1.56096,2.31608 -1.56096,2.31608 -0.67273,1.14146 -0.71876,2.05412 -0.71876,2.05412 l 0.0934,3.64976 0.95548,0.43587 -0.96897,8.41273"
       style="display:inline;fill:#e9c6af;fill-opacity:1;stroke:none;stroke-width:0.352553;stroke-linecap:butt;stroke-linejoin:miter;stroke-miterlimit:4;stroke-dasharray:none;stroke-opacity:1"
       id="path22461"
       sodipodi:nodetypes="cscsccccscssscccsccc" />
    <path
       style="display:inline;fill:#e3b08a;fill-opacity:1;stroke:none;stroke-width:0.264583px;stroke-linecap:butt;stroke-linejoin:miter;stroke-opacity:1"
       d="m 59.664241,10.126487 0.09081,-2.1734099 c 0,0 0.06319,-0.50725 -0.818237,-0.52657 -0.881427,-0.0193 -2.123839,-0.27222 -2.469618,0.0955 -0.345779,0.36772 1.689005,0.0266 2.363047,0.69435 0.674042,0.66776 0.515542,0.6076 0.515542,0.6076 0,0 0.07745,-0.0913 0.318451,1.3025399 z"
       id="path8045"
       sodipodi:nodetypes="ccssscsc" />
    <path
       style="display:inline;fill:#e3b08a;fill-opacity:1;stroke:none;stroke-width:0.264583px;stroke-linecap:butt;stroke-linejoin:miter;stroke-opacity:1"
       d="m 61.407403,8.9689571 c 0,0 0.659847,-1.38874 1.635318,-1.42317 0.975473,-0.0344 1.369823,0.16864 1.369823,0.16864 0,0 -0.46388,-0.49154 -1.674091,-0.43801 -1.210207,0.0535 -1.496039,-0.28259 -1.461844,0.32038 0.0342,0.60298 0.02913,0.91204 0.130794,1.37216 z"
       id="path8309" />
    <path
       style="display:inline;fill:#e3b08a;fill-opacity:1;stroke:none;stroke-width:0.264583px;stroke-linecap:butt;stroke-linejoin:miter;stroke-opacity:1"
       d="m 56.544708,8.1726471 c 0,0 -0.105135,0.6804 0.506209,0.24512 0.611341,-0.43528 -0.0093,0.39757 -0.145452,0.6324 -0.136141,0.23483 -0.801206,-0.26767 -0.360757,-0.87752 z"
       id="path8445" />
    <path
       style="display:inline;fill:#e3b08a;fill-opacity:1;stroke:none;stroke-width:0.264583px;stroke-linecap:butt;stroke-linejoin:miter;stroke-opacity:1"
       d="m 63.078705,8.2049371 c 0,0 0.792689,0.047 0.883599,0.61753 0.0909,0.57054 0.1145,-0.56853 0.51694,-0.61053 0.40244,-0.042 0.46168,-0.54821 -0.0393,-0.3142 -0.50104,0.23401 -1.361189,0.3072 -1.361189,0.3072 z"
       id="path9382" />
    <path
       style="display:inline;fill:#e5b99b;fill-opacity:1;stroke:none;stroke-width:0.264583px;stroke-linecap:butt;stroke-linejoin:miter;stroke-opacity:1"
       d="m 56.12327,20.190427 c 0,0 -0.01788,0.5317 -0.46043,1.5192 -0.515361,1.14997 -2.894265,2.17147 -3.018082,2.35105 -0.123815,0.17958 -0.776356,0.83062 -0.350383,0.94567 0.425977,0.11504 0.989338,-0.89992 1.825184,-0.82528 0.835847,0.0746 0.972473,0.72721 1.236416,0.54421 0.26394,-0.183 0.680985,-0.72039 0.734367,0.0216 0.05338,0.74195 0.560334,0.003 0.560334,0.003 0,0 0.203365,-2.02299 0.40168,-0.41919 0.198316,1.60381 0.899766,0.58599 0.742212,-0.3044 -0.157551,-0.89039 -1.33988,-2.81501 -1.586349,-4.09369 -0.109811,-0.5697 -0.114377,0.62006 -0.114377,0.62006 z"
       id="path28833"
       sodipodi:nodetypes="cssscsscssscc" />
    <path
       d="m 55.824968,15.526927 c -0.47777,0.14875 -1.71083,-1.87591 -1.71083,-1.87591 -2.02343,-2.15898 -1.19144,-3.7343499 -1.19144,-3.7343499 0,0 0.0568,-0.44592 1.02922,-0.10555 0,0 0.941896,1.6728799 1.053312,2.7277299 0.111415,1.05485 1.634364,3.09415 2.014291,3.39357 0.757651,0.86639 0.474337,0.61584 2.067834,1.20438 1.281933,0.73396 0.891124,-0.23343 1.478297,-0.3042 0.587174,-0.0708 1.016409,0.11249 0.86048,0.32562 0.445988,0.30478 0.354242,0.31669 1.42856,0.18771 -0.160314,0.0954 0.906582,-0.47842 1.446512,-1.09503 0.53993,-0.61662 -0.91653,1.91869 -1.78964,2.06786 -0.873109,0.14918 -2.061497,0.29315 -3.459906,0.1122 -1.398409,-0.18094 -3.226692,-2.90403 -3.226692,-2.90403 z"
       style="display:inline;fill:#e5b99b;fill-opacity:1;stroke:none;stroke-width:0.352553;stroke-linecap:butt;stroke-linejoin:miter;stroke-miterlimit:4;stroke-dasharray:none;stroke-opacity:1"
       id="path32270"
       sodipodi:nodetypes="scccscccccssscs" />
    <path
       d="m 54.042903,13.750237 c -2.02343,-2.15898 -1.19144,-3.73435 -1.19144,-3.73435 0,0 0.0568,-0.4459199 1.02922,-0.1055499 l 1.873048,5.7158099 z"
       style="display:inline;fill:#e3b08a;fill-opacity:1;stroke:none;stroke-width:0.352553;stroke-linecap:butt;stroke-linejoin:miter;stroke-miterlimit:4;stroke-dasharray:none;stroke-opacity:1"
       id="path94691" />
    <path
       d="m 55.412652,14.587777 c 0.618857,1.29641 2.922088,3.41302 3.417605,3.67593 0.495517,0.26291 2.872974,0.0733 2.872974,0.0733 -0.04495,0.56509 -0.942736,1.9798 -1.429577,1.9564 -0.486842,-0.0234 -1.451941,-0.0339 -1.639414,0.59347 -0.187473,0.62734 -1.434457,0.59905 -1.554482,0.29161 -0.120025,-0.30744 -0.587485,-0.31278 -0.891104,-0.16506 0,0 -0.358096,-5.22935 -0.776002,-6.42565 z"
       style="display:inline;fill:#e5b99b;fill-opacity:1;stroke:none;stroke-width:0.352553;stroke-linecap:butt;stroke-linejoin:miter;stroke-miterlimit:4;stroke-dasharray:none;stroke-opacity:1"
       id="path5102"
       sodipodi:nodetypes="ccscsscc" />
    <path
       style="display:inline;fill:#efb3a4;fill-opacity:1;stroke:none;stroke-width:0.264583px;stroke-linecap:butt;stroke-linejoin:miter;stroke-opacity:1"
       d="m 59.296507,13.883777 c 0,0 0.674701,0.0595 1.035119,-0.0171 0.368084,0.033 0.384712,0.0687 0.572368,0.0168 0.187655,-0.0519 0.961914,0.32994 1.189627,-0.0462 0.227714,-0.37614 -1.10753,-0.52656 -1.10753,-0.52656 l -1.353425,0.0267 -0.664925,0.38799 c 0,0 -0.171601,0.54538 0.328766,0.15834 z"
       id="path43902"
       sodipodi:nodetypes="ccssccccc" />
    <path
       style="display:inline;fill:#efac9b;fill-opacity:1;stroke:none;stroke-width:0.264583px;stroke-linecap:butt;stroke-linejoin:miter;stroke-opacity:1"
       d="m 59.110048,13.738057 c 0,0 0.335687,-0.43391 1.118036,-0.28254 0.782352,0.15137 0.573539,-0.244 1.224975,0.0575 0.651435,0.3015 0.271515,0.14471 0.554607,0.36977 0.08145,0.0648 0.586994,-0.26132 -0.336989,-0.55899 -0.923983,-0.29767 -0.451803,-0.18952 -1.121574,-0.11313 -0.669772,0.0764 -0.449006,-0.31033 -1.295961,0.17933 -0.846952,0.48965 -0.276383,0.49022 -0.276383,0.49022 z"
       id="path33976"
       sodipodi:nodetypes="csssssscc" />
    <path
       style="display:inline;fill:#efb3a4;fill-opacity:1;stroke:none;stroke-width:0.264583px;stroke-linecap:butt;stroke-linejoin:miter;stroke-opacity:1"
       d="m 59.059528,14.547927 c 0,0 -0.239028,-0.56814 0.441665,-0.69228 0.455805,-0.0831 0.758672,0.11146 1.052735,0.0784 0.294063,-0.0331 0.496938,-0.20395 0.864447,0.007 0.627726,0.0199 0.416186,0.54468 0.320013,0.73851 -0.09618,0.19382 -2.393301,0.0477 -2.67886,-0.13146 z"
       id="path37571"
       sodipodi:nodetypes="csccscc" />
    <path
       style="display:inline;fill:#efac9b;fill-opacity:1;stroke:none;stroke-width:0.264583px;stroke-linecap:butt;stroke-linejoin:miter;stroke-opacity:1"
       d="m 59.504261,14.525877 c 0,0 1.514004,0.0926 2.064038,-0.007 0.45323,-0.3087 0.225634,0.30843 -0.280932,0.32776 -0.506566,0.0194 -1.075669,-0.0967 -1.438256,0.0312 -0.362588,0.12789 -0.866959,-0.23153 -0.844277,-0.42751 0.02267,-0.19598 0.300891,0.1023 0.499427,0.0757 z"
       id="path14259"
       sodipodi:nodetypes="cccsscc" />
    <path
       style="display:inline;fill:#f2c3b9;fill-opacity:1;stroke:none;stroke-width:0.264583px;stroke-linecap:butt;stroke-linejoin:miter;stroke-opacity:1"
       d="m 59.356687,13.849107 c 0,0 0.832823,-0.0367 1.208521,-0.0455 0.375695,-0.009 0.616434,-0.0839 0.855988,0.008 0.239556,0.0918 0.442439,-0.10186 -0.440952,-0.15945 -0.883391,-0.0576 -1.086191,-0.001 -1.310823,0.045 -0.224628,0.0462 -0.297489,0.046 -0.312734,0.15203 z"
       id="path47164" />
    <path
       style="display:inline;fill:#f2c3b9;fill-opacity:1;stroke:none;stroke-width:0.264583px;stroke-linecap:butt;stroke-linejoin:miter;stroke-opacity:1"
       d="m 59.41254,14.176487 c 0,0 0.321641,0.0986 0.641882,0.0361 0.320238,-0.0625 0.742966,-0.015 0.907748,0.008 0.164783,0.0233 0.466908,0.0361 0.480857,-0.0233 0.01394,-0.0594 -0.320101,-0.11302 -0.548212,-0.10129 -0.22811,0.0118 -0.731565,-0.001 -0.959948,0.0103 -0.22838,0.0117 -0.541427,0.0154 -0.522327,0.0699 z"
       id="path48808" />
    <path
       style="display:inline;fill:#e3b08a;fill-opacity:1;stroke:none;stroke-width:0.264583px;stroke-linecap:butt;stroke-linejoin:miter;stroke-opacity:1"
       d="m 59.656613,11.319247 c 0,0 -0.190447,0.74183 0.04484,0.92003 0.235284,0.1782 0.934495,0.23712 1.147829,0.1447 0.213336,-0.0924 0.678365,-0.0649 0.598241,-0.31223 -0.06474,-0.19989 0.120927,-0.53958 -0.005,-0.82044 -0.06257,-0.13954 -0.123421,-0.98175 -0.123421,-0.98175 0,0 -0.03418,0.52395 -0.03921,1.27002 -0.105947,0.24793 0.03978,0.17154 -0.314593,0.41479 -0.08181,0.0562 -0.198899,0.14262 -0.588737,0.12239 -0.2818,-0.0146 -0.214912,0.0574 -0.502367,-0.15068 -0.287455,-0.20811 -0.152954,-0.13749 -0.217547,-0.60678 z"
       id="path54059"
       sodipodi:nodetypes="cssssccsszcc" />
    <path
       style="display:inline;fill:#e3b08a;fill-opacity:1;stroke:none;stroke-width:0.264583px;stroke-linecap:butt;stroke-linejoin:miter;stroke-opacity:1"
       d="m 61.45898,12.179057 c 0,0 0.342794,0.0716 0.479769,-0.0461 0.136972,-0.1177 0.14551,-0.33571 0.13811,-0.39633 -0.0074,-0.0606 -0.167381,-0.20554 -0.304898,-0.20554 -0.137515,0 0.18009,0.10099 0.05243,0.29433 -0.127654,0.19331 -0.114955,0.0206 -0.33412,0.18841 -0.06454,-0.0408 -0.0313,0.16528 -0.0313,0.16528 z"
       id="path57322"
       sodipodi:nodetypes="cssssccc" />
    <path
       style="display:inline;fill:#e3b08a;fill-opacity:1;stroke:none;stroke-width:0.264583px;stroke-linecap:butt;stroke-linejoin:miter;stroke-opacity:1"
       d="m 59.730623,12.303567 c 0,0 -0.342794,0.0716 -0.479769,-0.0461 -0.136972,-0.1177 -0.14551,-0.33571 -0.13811,-0.39633 0.0074,-0.0606 0.167381,-0.20554 0.304898,-0.20554 0.137515,0 -0.18009,0.10099 -0.05243,0.29433 0.127654,0.19331 0.114955,0.0206 0.33412,0.18841 0.06454,-0.0408 0.0313,0.16528 0.0313,0.16528 z"
       id="path57322-2"
       sodipodi:nodetypes="cssssccc" />
    <path
       style="display:inline;fill:#d39f76;fill-opacity:1;stroke:none;stroke-width:0.264583px;stroke-linecap:butt;stroke-linejoin:miter;stroke-opacity:1"
       d="m 59.296974,12.167987 c 0,0 -0.139939,-0.33693 0.33659,-0.2955 0,0 -0.207981,0.44414 0.646469,0.48108 0.85445,-0.0376 0.820391,-0.12689 1.028571,-0.27638 0.19614,-0.27028 0.07971,-0.13522 0.137477,-0.2914 0.05777,-0.15619 0.404516,-0.0514 0.452876,0.12331 0.04836,0.17463 -0.287432,0.33274 -0.393784,0.26176 -0.106351,-0.071 -0.03261,0.21174 -0.994582,0.33825 -0.770975,-0.0979 -0.866051,-0.19636 -0.866051,-0.19636 0,0 -0.288579,0.0252 -0.347566,-0.14476 z"
       id="path8581"
       sodipodi:nodetypes="ccccsssccc" />
    <path
       style="display:inline;fill:#e3b08a;fill-opacity:1;stroke:none;stroke-width:0.264583px;stroke-linecap:butt;stroke-linejoin:miter;stroke-opacity:1"
       d="m 55.571497,14.910587 c 0,0 0.320579,2.36875 0.303733,2.4926 -0.01685,0.12385 0.111692,0.7703 0.08976,0.87262 -0.02193,0.10232 0.367196,0.0224 0.266232,0.41837 -0.03526,0.13827 0.698246,0.856 0.974635,0.87939 0.276389,0.0234 1.253566,-0.13401 1.547476,-0.33593 0.352901,-0.24246 0.919903,0.001 1.112636,-0.12771 0.192734,-0.12926 1.133277,-0.58189 1.46933,-0.64804 0.336052,-0.0661 0.247925,-0.10634 0.247925,-0.10634 0,0 -2.047751,0.1185 -2.525744,-0.0233 -0.477994,-0.14184 -2.193751,-1.59733 -3.485986,-3.4215 z"
       id="path94847"
       sodipodi:nodetypes="cssssscccccc" />
    <path
       style="display:inline;fill:#e3b08a;fill-opacity:1;stroke:none;stroke-width:0.264583px;stroke-linecap:butt;stroke-linejoin:miter;stroke-opacity:1"
       d="m 56.112406,19.672257 c 0,0 1.572058,3.92332 1.572717,4.10156 5.29e-4,0.17823 -0.310393,-0.0465 -0.310393,-0.0465 0,0 -1.009896,-2.58352 -1.066147,-2.47896 -0.05625,0.10455 0.428297,1.5768 0.395293,1.79713 -0.03301,0.22033 -0.01767,0.61446 -0.553389,0.70358 -0.53572,0.0891 -1.369272,-0.47936 -2.504416,0.25755 -1.135147,0.73691 -0.52646,0.008 -0.52646,0.008 0,0 1.703602,-1.19047 1.848265,-1.41664 0.144664,-0.22618 1.198018,-0.92889 1.14453,-2.92536 z"
       id="path95784"
       sodipodi:nodetypes="cccsssscssc" />
    <path
       style="display:inline;fill:#e5b99b;fill-opacity:1;stroke:none;stroke-width:0.264583px;stroke-linecap:butt;stroke-linejoin:miter;stroke-opacity:1"
       d="m 57.977861,20.893907 c 0,0 1.399976,3.04479 1.512112,3.1238 0.112136,0.079 0.37896,0.39842 0.734989,0.0925 0.356031,-0.30594 2.225172,-3.30067 2.383687,-3.67013 0.158511,-0.36947 -0.463685,0.10628 -0.628844,0.32183 -0.16516,0.21555 -1.921384,3.04084 -2.105706,3.04084 -0.184324,0 -1.542263,-2.86794 -1.565363,-3.16845 -0.0231,-0.30051 -0.330875,0.25963 -0.330875,0.25963 z"
       id="path100853"
       sodipodi:nodetypes="csssssscc" />
    <path
       style="display:inline;fill:#d39f76;fill-opacity:1;stroke:none;stroke-width:0.27566px;stroke-linecap:butt;stroke-linejoin:miter;stroke-opacity:1"
       d="m 55.442083,14.949957 c 0,0 2.944058,3.17383 3.560936,3.35616 0.616874,0.18234 1.455556,0.0959 1.455556,0.0959 0,0 -0.013,0.0551 -0.20133,0.0931 -0.172675,0.0348 -0.514749,0.0509 -0.66234,0.0894 -0.05322,0.0139 -0.660201,-0.10521 -0.740152,-0.13644 -0.07995,-0.0312 -1.267175,-0.97956 -1.352988,-1.06205 -0.08582,-0.0825 -1.984396,-2.13384 -1.984396,-2.13384 z"
       id="path105166"
       sodipodi:nodetypes="cscsssscc" />
    <path
       style="display:inline;fill:#7f287f;fill-opacity:1;stroke:none;stroke-width:0.352553;stroke-linecap:butt;stroke-linejoin:miter;stroke-miterlimit:4;stroke-dasharray:none;stroke-opacity:1"
       d="m 32.964619,47.894667 c 0,0 0.661321,1.20702 3.327169,1.42809 2.665847,0.22107 5.221344,-0.67081 6.700703,0.22107 1.479359,0.89188 -0.486266,0.8356 0.822903,2.51397 1.309168,1.67838 0.06008,1.02162 0.257128,2.1147 0.197042,1.09309 -1.206082,-1e-5 -0.611957,1.67288 0.594124,1.6729 -0.3458,-0.13394 -0.446445,1.48258 -0.100644,1.61651 -0.348776,2.45447 -1.468339,3.03915 -1.119565,0.58467 -0.214137,2.8414 0.548455,3.42459 0.762591,0.58319 -1.473768,0.67736 -0.289706,5.00711 1.184061,4.32973 -1.295751,1.41604 -1.322881,6.48736 -0.02714,5.071335 0.941744,7.785265 1.091004,10.561865 0.149259,2.77661 -0.791382,2.31975 2.212626,3.89959 3.004009,1.57987 0.578795,4.23386 0.169268,6.6482 -0.409528,2.41434 -2.330715,2.78333 2.594563,4.849608 0,0 0.347041,0.55588 1.84335,2.43047 1.49631,1.8746 1.261067,2.36332 0.883847,4.69797 -0.377215,2.33468 -3.221302,1.09687 1.143155,6.34601 0,0 -0.968795,0.8099 -0.48212,1.84351 0.486677,1.03362 1.025731,4.31281 2.772777,6.38042 1.747045,2.06761 0.362864,0.57651 0.649113,5.42748 l -0.927694,1.42073 c 0,0 0.836016,2.30524 2.257599,2.29274 5.919144,0.80975 4.152325,4.62435 5.820239,6.42609 0.492576,0.15588 4.422008,0.93606 6.094948,-0.37684 1.67293,-1.31291 1.32043,-4.87364 3.48972,-5.71206 6.16462,-7.79481 5.15248,-1.43322 6.56434,-4.40802 -0.74528,-2.26336 0.13243,-2.59091 2.16428,-4.83063 2.03184,-2.23972 5.22807,-4.54031 5.93259,-6.65629 0.70452,-2.11598 -2.00689,-1.9826 -4.16441,-20.440088 0,0 1.54794,-0.2177 1.63094,-1.92653 v -5e-5 c 0,0 2.57656,-0.80205 2.246,-3.86507 -0.33055,-3.06302 -1.77967,-6.75169 -1.28767,-7.24368 0.44992,-0.44993 -0.31625,-0.71225 -0.0319,-8.636975 0.0266,-0.74107 0.7602,-1.54912 0.44156,-2.43061 0,0 2.21061,-1.31091 4.51889,-1.60387 2.30829,-0.29297 7.4833,-6.24995 9.82407,-8.55176 2.340776,-2.3018 -5.74132,-8.43895 -8.35224,-15.64604 0,0 2.41617,-6.37339 -3.81048,-10.66581 0,0 -1.72234,-1.1943 -1.72234,-3.56107 0,-2.36676 1.38961,-1.8356 1.38961,-1.8356 0,0 2.37264,-1.5161 -1.19802,-2.67061 -3.57067,-1.15452 -5.84451,-4.43587 -8.20229,-4.6455 -2.35778,-0.20963 0.0136,-2.43521 -5.52912,-2.95019 -0.92519,-0.18962 -2.22395,0.50717 -2.47863,0.19649 -0.25469,-0.31069 -1.93109,-0.59193 -1.75589,4.6e-4 0.1752,0.59239 -0.59563,3.44798 -0.59563,3.44798 0,0 -3.504239,3.79277 -5.069865,4.86729 -1.565623,1.07453 -1.593023,2.37922 -1.593023,2.37922 0,0 -0.575667,-1.12099 -1.143042,-1.76855 -0.567375,-0.64755 -5.207681,-0.67209 -7.877709,-1.7832 -2.670028,-1.11112 -0.157593,-1.60291 0.956975,-1.98938 1.114568,-0.38647 4.090912,-2.48031 4.090912,-2.48031 -1.88992,-0.48404 -1.819701,1.14402 -4.520319,1.34023 -2.700618,0.19622 -4.122938,1.75538 -4.122938,1.75538 0,0 -2.807921,0.90486 -3.146819,2.286 -0.267382,1.08968 -2.144561,0.0329 -2.472063,1.85069 -0.327506,1.81789 -7.276852,5.89698 -7.276852,5.89698 0,0 -0.926891,0.94563 -1.508733,2.06791 -0.586854,1.13196 -3.450951,1.31003 -4.692935,2.63191 0,0 4.135743,2.50153 5.526147,3.98632 1.390404,1.48478 1.303643,2.44665 0.137179,3.35569 z"
       id="path16971"
       sodipodi:nodetypes="cscsscscssscscsscsscscccsccsssssscssssssssssssscsscsscccsssscsc" />
    <path
       style="display:inline;fill:#3d1e3d;fill-opacity:1;stroke:none;stroke-width:0.264583px;stroke-linecap:butt;stroke-linejoin:miter;stroke-opacity:1"
       d="m 78.501234,49.950227 -2.02192,-2.02253 -5.71687,-2.9943 -1.73432,2.30078 1.62713,1.45361 c 0,0 1.30491,-0.57854 2.57164,3.70968 1.26673,4.28821 4.56089,7.64307 3.8608,9.8436 -0.70008,2.20053 0.60395,6.04392 1.83834,9.92967 0,0 -1.91025,-17.8695 -0.4248,-22.22051 z"
       id="path120543"
       sodipodi:nodetypes="cccccsscc" />
    <path
       style="display:inline;fill:#3d1e3d;fill-opacity:1;stroke:none;stroke-width:0.264583px;stroke-linecap:butt;stroke-linejoin:miter;stroke-opacity:1"
       d="m 92.892424,60.027927 c 0,0 -4.39281,-5.57157 -6.95367,-9.76848 0,0 0.21958,8.33952 -0.67331,11.47039 -0.89286,3.13087 -1.78176,5.81498 -1.39365,7.73133 0,0 2.438,-4.71834 4.83802,-5.16205 2.40002,-0.44371 -3.98079,-6.01277 -0.58607,-6.72248 0,0 0.94266,-0.42122 4.76868,2.45129 z"
       id="path122045"
       sodipodi:nodetypes="ccscscc" />
    <path
       style="display:inline;fill:#3d1e3d;fill-opacity:1;stroke:none;stroke-width:0.264583px;stroke-linecap:butt;stroke-linejoin:miter;stroke-opacity:1"
       d="m 69.732634,70.402487 c 0,0 -1.47895,4.27207 1.50614,9.349295 2.98508,5.07722 2.74797,6.98319 2.74797,7.85018 0,0.86699 0.39778,4.55117 4.38018,3.52402 3.98241,-1.02714 3.34617,-0.43099 3.34617,-0.43099 0,0 0.64909,-2.44205 -1.24407,-5.93084 -1.89316,-3.4888 -2.42484,-2.36745 -4.36424,-8.063705 -1.93941,-5.69625 -5.71771,-8.88261 -6.94763,-15.41235 z"
       id="path124847"
       sodipodi:nodetypes="cssscsscc" />
    <path
       style="display:inline;fill:#3d1e3d;fill-opacity:1;stroke:none;stroke-width:0.264583px;stroke-linecap:butt;stroke-linejoin:miter;stroke-opacity:1"
       d="m 77.710214,99.249332 c -0.14023,1.964048 1.55673,5.671888 0.16235,6.576548 -1.92224,1.24714 -2.07076,3.15263 -2.71108,-0.59744 -0.35938,-2.10471 -2.15934,-2.34924 -2.15934,-2.34924 0.9798,-2.04148 4.70807,-3.629868 4.70807,-3.629868 z"
       id="path132144"
       sodipodi:nodetypes="csscc" />
    <path
       style="display:inline;fill:#3d1e3d;fill-opacity:1;stroke:none;stroke-width:0.264583px;stroke-linecap:butt;stroke-linejoin:miter;stroke-opacity:1"
       d="m 42.931208,76.098497 c 0,0 2.534814,7.181775 1.78527,11.426675 0,0 -3.007568,0.91749 -2.421732,-9.156395 l 0.636462,-2.27028"
       id="path1915"
       sodipodi:nodetypes="cccc" />
    <path
       style="display:inline;fill:#3d1e3d;fill-opacity:1;stroke:none;stroke-width:0.264583px;stroke-linecap:butt;stroke-linejoin:miter;stroke-opacity:1"
       d="m 49.76802,100.55876 c -1.520671,2.80138 -3.858171,-0.0662 -3.858171,-0.0662 0,0 1.644863,0.71908 3.858171,0.0662 z"
       id="path5129"
       sodipodi:nodetypes="ccc" />
    <path
       style="display:inline;fill:#3d1e3d;fill-opacity:1;stroke:none;stroke-width:0.264583px;stroke-linecap:butt;stroke-linejoin:miter;stroke-opacity:1"
       d="m 56.423452,95.440642 c 1.221796,-3.64612 -0.803597,2.43801 -5.508342,5.769238 0,0 0.686657,0.89512 0.355737,4.21541 0,0 3.93081,-6.338528 5.152605,-9.984648 z"
       id="path8630"
       sodipodi:nodetypes="sccs" />
    <path
       style="display:inline;fill:#3d1e3d;fill-opacity:1;stroke:none;stroke-width:0.264583px;stroke-linecap:butt;stroke-linejoin:miter;stroke-opacity:1"
       d="m 59.992954,93.024632 c 0,0 -4.690658,17.717908 -5.640038,23.233558 -0.949383,5.51565 -0.806413,-1.3619 0.04991,-7.11936 0.856319,-5.75745 5.590133,-16.114198 5.590133,-16.114198 z"
       id="path10093" />
    <path
       style="display:inline;fill:#3d1e3d;fill-opacity:1;stroke:none;stroke-width:0.264583px;stroke-linecap:butt;stroke-linejoin:miter;stroke-opacity:1"
       d="m 69.228154,123.51973 c 0,0 -2.17611,0.50932 -1.27375,-1.36107 0.90236,-1.8704 1.50979,0.065 1.50979,0.065 0,0 1.03397,-0.83154 -0.81197,-2.82244 -1.84594,-1.99091 -2.8468,-4.37022 -3.89398,-5.91836 0,0 -3.154043,3.55893 -3.346531,5.49487 -0.09102,0.91543 0.07077,3.19984 0.593908,4.03932 0.523142,0.83949 0.141875,-3.32344 0.32386,-4.4929 0.181986,-1.16946 1.605363,-1.79007 1.570493,1.05915 -0.0349,2.84922 -0.034,7.36083 1.69042,7.78426 0,0 1.59811,-2.13398 3.63776,-3.84783 z"
       id="path10276"
       sodipodi:nodetypes="cscscsssscc" />
    <path
       style="display:inline;fill:#3d1e3d;fill-opacity:1;stroke:none;stroke-width:0.264583px;stroke-linecap:butt;stroke-linejoin:miter;stroke-opacity:1"
       d="m 49.86817,94.260282 c 0,0 -4.816163,5.04365 -5.907918,3.82755 -1.091758,-1.2161 1.094865,-6.81145 1.094865,-6.81145 0,0 0.412665,-1.12812 2.128755,-1.25147 1.71609,-0.12334 0.440727,1.27683 -0.194117,1.31142 -0.634847,0.0346 -2.015966,0.59931 -0.747223,3.94689 1.268746,3.34758 -0.665078,-2.20294 2.368211,-1.34621 z"
       id="path11404"
       sodipodi:nodetypes="cscssscc" />
    <path
       style="display:inline;fill:#3d1e3d;fill-opacity:1;stroke:none;stroke-width:0.264583px;stroke-linecap:butt;stroke-linejoin:miter;stroke-opacity:1"
       d="m 45.742964,66.334457 c 0.378561,-2.53436 0.08641,-1.9663 0.08641,-1.9663 l -2.400067,1.266 c 0,0 -0.850513,-0.53317 1.322753,-2.02705 0,0 -1.339437,1.12602 -2.64478,-0.0419 -1.305343,-1.1679 0.169764,0.73485 -0.113999,1.3646 -0.283765,0.62974 -0.85158,0.7883 -0.113734,2.49673 0.737847,1.70843 -0.356174,-0.89854 -0.746627,3.40855 0,0 4.231481,-1.96627 4.610044,-4.50063 z"
       id="path15598"
       sodipodi:nodetypes="scccssscs" />
    <path
       style="display:inline;fill:#3d1e3d;fill-opacity:1;stroke:none;stroke-width:0.264583px;stroke-linecap:butt;stroke-linejoin:miter;stroke-opacity:1"
       d="m 42.227382,61.730387 c 0,0 5.050896,-0.82343 5.315733,-2.1914 0.264837,-1.36797 -2.456442,0.54114 -2.456442,0.54114 0,0 -3.311379,0.17828 0.405474,-1.05696 3.716851,-1.23524 -0.0016,-0.58224 -0.887963,-1.48363 -0.886396,-0.90138 1.674239,-0.25467 2.028521,-0.79262 0.354282,-0.53796 0.628539,1.76776 2.949744,2.66739 2.321206,0.89964 -1.243965,4.12174 -2.450835,3.73469 -1.206871,-0.38704 -2.268506,1.51079 -4.904232,-1.41861 z"
       id="path16110" />
    <path
       style="display:inline;fill:#3d1e3d;fill-opacity:1;stroke:none;stroke-width:0.264583px;stroke-linecap:butt;stroke-linejoin:miter;stroke-opacity:1"
       d="m 43.652158,29.803057 c 0,0 1.995747,11.02213 1.662176,13.19056 -0.333571,2.16844 0.229706,2.62062 0.229706,2.62062 0,0 1.97123,-5.22022 -1.891882,-15.81118 z"
       id="path16324" />
    <path
       style="display:inline;fill:#3d1e3d;fill-opacity:1;stroke:none;stroke-width:0.264583px;stroke-linecap:butt;stroke-linejoin:miter;stroke-opacity:1"
       d="m 45.362541,29.817827 c 0,0 2.868824,14.64176 2.156677,15.26347 -0.712147,0.62171 -1.393299,-8.29083 -1.393299,-8.29083 0,0 -0.812339,-5.24889 -0.763378,-6.97264 z"
       id="path16507" />
    <path
       style="display:inline;fill:#3d1e3d;fill-opacity:1;stroke:none;stroke-width:0.264583px;stroke-linecap:butt;stroke-linejoin:miter;stroke-opacity:1"
       d="m 85.938754,50.259447 -0.0272,2.23606 c 0,0 -1.03377,-5.0697 -3.15604,-6.56404 0,0 1.71036,7.13095 0.58372,13.05566 0,0 -0.17288,-0.59523 -0.95532,-1.75044 -0.78241,-1.15521 0.6521,-9.34465 -0.62637,-11.83878 -1.27847,-2.49413 -3.46132,-3.62489 -4.81292,-4.1304 -1.3516,-0.5055 5.97464,0.58722 8.99413,8.99194"
       id="path16690"
       sodipodi:nodetypes="ccccsssc" />
    <path
       style="display:inline;fill:#3d1e3d;fill-opacity:1;stroke:none;stroke-width:0.264583px;stroke-linecap:butt;stroke-linejoin:miter;stroke-opacity:1"
       d="m 75.439764,39.808057 c 0,0 1.59723,-2.25737 2.87772,-2.96811 1.28048,-0.71074 2.14029,0.023 2.14029,0.023 0,0 -1.99627,-0.0638 -2.83987,1.34936 -0.8436,1.41312 -0.77679,0.35587 -0.74835,0.70199 0.0284,0.34611 3.52725,-0.44809 4.70699,-1.15344 1.17975,-0.70534 4.56064,-1.43691 5.37937,-0.34306 0.81873,1.09385 -1.01906,-0.21237 -2.35136,0.55459 -1.33229,0.76697 1.25203,-0.69602 3.2016,1.84842 1.94957,2.54444 1.14614,3.50416 1.14614,3.50416 0,0 -1.90073,-5.33257 -6.68865,-4.78999 -4.78792,0.54257 -6.82388,1.27311 -6.82388,1.27311 z"
       id="path16948" />
    <path
       style="display:inline;fill:#3d1e3d;fill-opacity:1;stroke:none;stroke-width:0.264583px;stroke-linecap:butt;stroke-linejoin:miter;stroke-opacity:1"
       d="m 44.134245,54.067547 c 0,0 0.345765,1.64473 1.773555,1.32442 1.427786,-0.32032 -1.575639,-0.78096 -1.773555,-1.32442 z"
       id="path17194" />
    <path
       style="display:inline;fill:#3d1e3d;fill-opacity:1;stroke:none;stroke-width:0.264583px;stroke-linecap:butt;stroke-linejoin:miter;stroke-opacity:1"
       d="m 44.052203,52.404117 c 0,0 1.657312,1.52966 1.979297,1.48789 0.321985,-0.0418 0.429665,-0.98298 -0.565187,-1.54091 -0.994852,-0.55793 -1.496152,-1.6104 -1.41411,0.053 z"
       id="path18648" />
    <path
       style="display:inline;fill:#3d1e3d;fill-opacity:1;stroke:none;stroke-width:0.264583px;stroke-linecap:butt;stroke-linejoin:miter;stroke-opacity:1"
       d="m 72.036314,23.717387 c 0,0 1.04758,-1.59785 2.48966,-1.17715 1.44208,0.4207 1.42459,-0.88956 -0.11245,-1.01659 -1.53703,-0.12704 -2.51542,1.86361 -2.51542,1.86361 0,0 -0.15017,0.18144 0.13821,0.33013 z"
       id="path18946" />
    <path
       style="display:inline;fill:#3d1e3d;fill-opacity:1;stroke:none;stroke-width:0.264583px;stroke-linecap:butt;stroke-linejoin:miter;stroke-opacity:1"
       d="m 65.796214,33.662917 c 0.51761,-0.41409 3.51085,-3.34199 4.54675,-6.00461 1.03591,-2.66262 -2.03812,3.58497 -4.54675,6.00461 z"
       id="path19014" />
    <path
       style="display:inline;fill:#3d1e3d;fill-opacity:1;stroke:none;stroke-width:0.264583px;stroke-linecap:butt;stroke-linejoin:miter;stroke-opacity:1"
       d="m 70.060184,132.20252 c 0,0 -0.48132,0.0765 -0.6828,-0.40293 -0.20147,-0.47946 -0.57654,-1.72173 0.0551,-2.51718 0.63169,-0.79546 1.75017,-1.59328 1.88546,-2.33518 h 5e-5 c 0,0 -6.15698,4.0147 -7.26506,3.77659 -1.10809,-0.23811 -0.937757,0.44974 0.39311,1.70987 1.33086,1.26014 3.3297,2.90011 2.8053,3.8425 -0.52441,0.94238 -0.81972,1.98904 -0.49923,2.27624 0.32049,0.28721 7.97409,0.21882 8.45244,-0.13116"
       id="path19511"
       sodipodi:nodetypes="cssccssssc" />
    <path
       style="display:inline;fill:#3d1e3d;fill-opacity:1;stroke:none;stroke-width:0.264583px;stroke-linecap:butt;stroke-linejoin:miter;stroke-opacity:1"
       d="m 55.006101,132.61171 c 0,0 -0.116698,-0.70842 0.906354,-1.69401 1.023048,-0.98558 2.575694,-2.88342 2.60128,-3.22301 0.02559,-0.33958 0.54374,1.01943 0.509717,1.70995 -0.03402,0.69052 0.326059,1.76742 0.474247,1.86332 0.148185,0.0959 -0.173093,1.98579 0.297995,2.93772 0.471088,0.95193 0.504285,1.16621 0.570693,1.55622 0.06641,0.39002 0.448672,2.74677 0.657074,2.9164 0.208402,0.16963 -1.789541,-0.15792 -1.789541,-0.60544 0,-0.44752 1.373582,-7.00098 -4.227819,-5.46115 z"
       id="path32947" />
    <path
       style="display:inline;fill:#3d1e3d;fill-opacity:1;stroke:none;stroke-width:0.264583px;stroke-linecap:butt;stroke-linejoin:miter;stroke-opacity:1"
       d="m 53.203058,128.6657 c 0,0 2.536468,-1.31507 3.073302,-2.01135 0.536837,-0.69629 1.5983,-0.73196 1.5983,-0.73196 0,0 0.117629,-0.44877 0.745257,-0.63586 0.627626,-0.1871 -0.111207,-4.30466 0.262493,-4.82821 0.373701,-0.52354 0.771269,-0.88907 1.011161,-0.88907 0.23989,0 -0.810114,-1.56066 0.165822,-2.28581 0.97594,-0.72514 -0.581318,-1.38818 -0.575907,-2.35071 0.0054,-0.96252 -0.563071,-2.19257 -0.390107,-2.77976 0.172963,-0.58719 -0.672648,-0.0453 -0.392904,2.70896 0.279741,2.75426 -1.357059,6.88816 -1.287105,7.32233 0.06995,0.43416 0.172751,3.32104 -0.755042,3.15891 -0.927793,-0.16213 -3.308519,2.69262 -3.45527,3.32253 z"
       id="path33128" />
    <path
       style="display:inline;fill:#3d1e3d;fill-opacity:1;stroke:none;stroke-width:0.264583px;stroke-linecap:butt;stroke-linejoin:miter;stroke-opacity:1"
       d="m 60.285297,123.26681 c 0,0 -0.116437,8.80601 1.63571,9.36564 1.752147,0.55963 0.435385,-0.896 0.534199,-1.15927 0.09881,-0.26327 0.928283,1.05048 1.422328,1.08064 0.49405,0.0302 0.89482,1.04367 0.79561,1.4518 -0.0992,0.40814 -0.81974,-1.1392 -1.312986,-0.72678 -0.49325,0.41242 1.256906,2.3934 0.195776,3.18037 -1.061122,0.78697 -0.438486,0.0971 -1.262402,0.0448 -0.823912,-0.0523 -2.211305,-1.52685 -0.929674,-1.55456 1.281629,-0.0277 -0.710493,-1.18337 -0.842785,-1.84162 -0.132292,-0.65825 -1.206169,-5.654 -0.235776,-9.84105 z"
       id="path33309" />
    <path
       style="display:inline;fill:#3d1e3d;fill-opacity:1;stroke:none;stroke-width:0.264583px;stroke-linecap:butt;stroke-linejoin:miter;stroke-opacity:1"
       d="m 64.774904,77.154367 c 0,0 0.0112,-0.19548 0.76187,-0.73724 1.11145,-0.80211 0.20939,1.89123 -0.6544,4.172095 -0.46203,1.21999 1.35039,-1.677882 1.76585,-4.974205 0.41545,-3.29631 -1.87332,1.53935 -1.87332,1.53935 z"
       id="path33490"
       sodipodi:nodetypes="csssc" />
    <path
       style="display:inline;fill:#3d1e3d;fill-opacity:1;stroke:none;stroke-width:0.264583px;stroke-linecap:butt;stroke-linejoin:miter;stroke-opacity:1"
       d="m 51.472871,85.736912 c 0,0 3.802422,-11.484595 5.618712,-13.380885 1.816291,-1.8963 -0.251841,0.46965 -0.546822,1.47785 -0.294981,1.0082 -3.584654,8.410125 -4.197736,10.644655 -0.613085,2.23453 -1.096156,1.6815 -0.874154,1.25838 z"
       id="path21860" />
    <path
       style="display:inline;fill:#3d1e3d;fill-opacity:1;stroke:none;stroke-width:0.264583px;stroke-linecap:butt;stroke-linejoin:miter;stroke-opacity:1"
       d="m 65.499224,29.327737 c 0,0 -1.43509,5.1732 -2.756421,10.74808 -0.210175,0.88676 -0.314912,0.28256 -0.172847,-0.36733 0.142063,-0.64989 2.710528,-12.13945 3.244298,-11.94214 0.53377,0.19731 -0.31503,1.56139 -0.31503,1.56139 z"
       id="path25954"
       sodipodi:nodetypes="csssc" />
    <path
       style="display:inline;fill:#28170b;fill-opacity:1;stroke:none;stroke-width:0.264583px;stroke-linecap:butt;stroke-linejoin:miter;stroke-opacity:1"
       d="m 54.603577,12.059827 c 0,0 0.111932,1.26691 -0.299173,0.80779 -0.411107,-0.45912 -0.124534,-1.24484 -0.268403,-1.5753 -0.14387,-0.33045 -0.376698,-1.09167 -0.729338,-1.3367099 -0.352636,-0.24505 -0.184422,-1.71806 -0.5394,-2.5184 -0.354976,-0.80035 0.24657,-2.696138 0.95523,-3.192559 0.708663,-0.496422 -0.324972,-0.711118 0.7083,-1.476635 1.03327,-0.765516 2.113315,-2.059138 4.467916,-2.435124 2.354601,-0.375984 3.835294,0.340222 4.09738,0.464629 0.262083,0.12441 2.207995,1.217451 2.993785,2.153537 0.78578,0.936085 1.67197,1.361696 1.15288,3.289012 0,0 0.38974,0.60716 0.3205,2.55193 -0.0693,1.9447699 -0.3829,1.20775 -0.59822,1.6940099 -0.21532,0.48626 -0.59158,2.03285 -0.8591,1.1429 -0.2442,-0.81235 0.74532,-2.8223699 0.20403,-3.7225799 -0.53259,-0.88575 0.23073,-1.17201 -0.0743,-3.23017 -0.33272,-2.244607 -3.456097,-3.842889 -4.487653,-4.001381 -1.031556,-0.158492 -4.139012,-0.428389 -6.071202,1.74519 -2.353276,2.906149 -0.39445,5.046331 -0.887838,6.257501 -0.476723,1.13569 0.151797,1.9516399 -0.08534,3.3823599 z"
       id="path1258"
       sodipodi:nodetypes="csssssssssccsssszccsc" />
    <path
       style="display:inline;fill:#28170b;fill-opacity:1;stroke:none;stroke-width:0.264583px;stroke-linecap:butt;stroke-linejoin:miter;stroke-opacity:1"
       d="m 56.824449,7.5229871 c 0,0 -0.665435,0.4767 -0.71473,0.3425 -0.04929,-0.13419 -0.167256,-0.47742 0.05961,-0.78353 0.22687,-0.3061 0.25676,-0.31139 1.178177,-0.31139 0.921416,0 2.487858,-0.26703 2.480426,0.21244 -0.0074,0.47947 -0.442714,0.41195 -1.263663,0.41195 -0.820949,0 -1.15014,-0.0101 -1.15014,-0.0101 z"
       id="path12716"
       sodipodi:nodetypes="cssscscc" />
    <path
       style="display:inline;fill:#28170b;fill-opacity:1;stroke:none;stroke-width:0.264583px;stroke-linecap:butt;stroke-linejoin:miter;stroke-opacity:1"
       d="m 64.113494,7.4895571 c 0,0 0.66544,0.4767 0.71473,0.3425 0.0493,-0.13419 0.16726,-0.47742 -0.0596,-0.78353 -0.22687,-0.3061 -0.25676,-0.31139 -1.17818,-0.31139 -0.921404,0 -2.487844,-0.26703 -2.480414,0.21244 0.007,0.47947 0.44271,0.41195 1.26366,0.41195 0.820946,0 1.150134,-0.0101 1.150134,-0.0101 z"
       id="path12716-6"
       sodipodi:nodetypes="cssscscc" />
    <path
       d="m 77.293064,132.0053 c 1.05524,2.03723 2.74792,2.1583 3.90573,3.43744 1.15781,1.27913 0.10124,3.17193 0.10124,3.17193 -1.31893,0.19549 -6.38827,1.02718 -7.53396,-0.8603 -1.14569,-1.8875 -2.90422,-0.81056 -3.42666,-2.18643 -0.52245,-1.37589 -0.25315,-3.08944 -0.25315,-3.08944 0,0 2.28708,-6.11042 6.22972,-3.7202 1.08764,1.51898 -0.0781,1.20976 0.97708,3.247 z"
       style="display:inline;fill:#deaa87;fill-opacity:1;stroke:none;stroke-width:0.340579;stroke-linecap:butt;stroke-linejoin:miter;stroke-miterlimit:4;stroke-dasharray:none;stroke-opacity:1"
       id="path99821"
       sodipodi:nodetypes="sscssccs" />
    <path
       style="display:inline;fill:#deaa87;fill-opacity:1;stroke:none;stroke-width:0.352553;stroke-linecap:butt;stroke-linejoin:miter;stroke-miterlimit:4;stroke-dasharray:none;stroke-opacity:1"
       d="m 60.488605,137.96415 c -0.515649,0.13943 -1.516117,0.63545 -2.442307,0.97099 -1.47036,0.53268 -9.131822,1.59728 -9.302533,0.20813 -0.170718,-1.38915 1.207856,-2.88235 2.420172,-3.13453 0,0 2.30893,-1.22162 3.846916,-3.4951 0,0 1.091318,-1.48819 2.21422,-1.05226 1.122903,0.43592 1.446115,0.76457 1.74582,1.28365 0.299705,0.51908 0.621706,2.38984 0.969561,2.72492 0.347855,0.33509 0.0912,2.04253 0.548151,2.4942 z"
       id="path27793"
       sodipodi:nodetypes="cssccsssc" />
    <path
       style="display:inline;fill:#b17c58;fill-opacity:1;stroke:none;stroke-width:0.264583px;stroke-linecap:butt;stroke-linejoin:miter;stroke-opacity:1"
       d="m 80.607094,137.89892 c -1.98694,-0.62726 -4.52522,0.0762 -4.77794,-0.37644 -0.25272,-0.45264 -0.43804,-1.01737 0.10399,-1.30137 0.54204,-0.28401 -1.49795,-1.85854 -1.76511,-0.73854 -0.27371,1.14747 -0.88962,0.10994 -0.72749,-2.27029 0.0711,-1.04337 -2.33584,2.88037 -3.35428,-0.4692 0,0 -0.24732,1.84093 0.14631,2.49657 0.39362,0.65564 0.17571,0.94915 1.3634,1.2349 1.18768,0.28574 1.47697,0.35998 2.18689,1.28804 0.70991,0.92805 1.73002,1.67425 6.124,1.00244 0,0 2.68717,-0.23886 0.70023,-0.86611 z"
       id="path20387"
       sodipodi:nodetypes="ssssscssscs" />
    <path
       style="display:inline;fill:#b17c58;fill-opacity:1;stroke:none;stroke-width:0.264583px;stroke-linecap:butt;stroke-linejoin:miter;stroke-opacity:1"
       d="m 56.93237,138.12287 c -0.911195,0.0244 -0.12968,-0.57848 0.555049,-0.39645 0.684731,0.18204 0.501499,-4.50227 -0.701511,-4.55099 -1.20301,-0.0487 -2.180627,0.0721 -2.637113,0.49406 -0.456486,0.42196 1.346372,-1.97509 1.980724,-2.18407 0.634354,-0.20898 2.378932,-0.0486 2.911065,1.36772 0.532135,1.41633 0.994283,2.85244 1.091207,2.99914 0.09692,0.1467 -0.05899,1.1156 0.356811,2.37646 0,0 -1.133259,0.32348 -2.739458,0.84577 0,0 0.09442,-0.97606 -0.816774,-0.95164 z"
       id="path31182"
       sodipodi:nodetypes="sssssssccs" />
    <path
       style="display:inline;fill:#dfdfdf;fill-opacity:1;stroke:none;stroke-width:0.264583px;stroke-linecap:butt;stroke-linejoin:miter;stroke-opacity:1"
       d="m 57.245629,8.7051271 c 0,0 0.0902,-0.74366 1.063595,-0.65777 0.973399,0.0859 1.070455,0.71735 1.070455,0.71735 0,0 -1.134269,0.28899 -2.13405,-0.0596 z"
       id="path8996"
       sodipodi:nodetypes="cscsc" />
    <path
       style="display:inline;fill:#dfdfdf;fill-opacity:1;stroke:none;stroke-width:0.264583px;stroke-linecap:butt;stroke-linejoin:miter;stroke-opacity:1"
       d="m 63.824424,8.5865071 c 0,0 -0.0738,-0.71423 -1.047204,-0.62834 -0.973398,0.0859 -1.086832,0.68792 -1.086832,0.68792 0,0 1.134268,0.28899 2.134036,-0.0596 z"
       id="path8996-3"
       sodipodi:nodetypes="cscsc" />
    <ellipse
       style="display:inline;fill:#231309;fill-opacity:1;stroke:none;stroke-width:0.350853;stroke-opacity:1"
       id="path58178"
       cx="58.310791"
       cy="8.4352541"
       rx="0.44751471"
       ry="0.39444089" />
    <ellipse
       style="display:inline;fill:#231309;fill-opacity:1;stroke:none;stroke-width:0.350853;stroke-opacity:1"
       id="path58178-2"
       cx="62.816734"
       cy="8.3354845"
       rx="0.44751471"
       ry="0.39444089" />
    <path
       style="display:inline;fill:#e9c6af;stroke:none;stroke-width:0.351998px;stroke-linecap:butt;stroke-linejoin:miter;stroke-opacity:1"
       d="m 64.718724,40.920197 c 0,0 1.02798,0.0857 3.97534,0.0532 l 4.71515,-0.0524 c 1.39889,-0.0155 2.65055,3.58086 2.30561,5.16518 -0.34495,1.58433 1.82282,1.84152 1.82282,1.84152 0,0 -3.70986,-0.0243 -6.74115,-1.40285 -3.03129,-1.37844 -6.00709,-4.59404 -6.00709,-4.59404 z"
       id="path16009"
       sodipodi:nodetypes="cssscccc" />
    <path
       style="display:inline;fill:#e9c6af;stroke:none;stroke-width:0.351998px;stroke-linecap:butt;stroke-linejoin:miter;stroke-opacity:1"
       d="m 27.221677,40.873587 c 0,0 -4.271338,0.47632 -7.531684,4.21255 0,0 -4.99572,3.00462 -6.436955,2.49609 -1.441237,-0.50856 -1.650468,-0.44309 -2.244392,-1.09548 -0.593924,-0.65242 -3.3411177,0.56671 -4.8170867,-0.72842 -0.903371,-0.79269 -1.420301,-0.19067 -1.477347,0.48521 -0.03616,0.42841 0.354264,0.87197 0.852879,1.12862 0.784031,0.40355 1.695051,0.75535 2.685728,0.78267 0.3638208,0.01 -0.233842,0.36806 -0.333576,0.48271 -0.115698,0.133 -1.471886,1.06992 -2.485744,1.45085 -0.870349,0.32701 -4.55841401,2.725 -5.13243201,3.16732 -0.574018,0.44231 -0.05715,1.50587 1.20268801,0.95718 0.79535,-0.3464 2.322748,-1.52714 3.045969,-1.73836 1.114425,-0.32547 1.451844,-0.67546 1.602668,-0.16493 0.194607,0.65872 -1.104475,0.73305 -2.69853,3.1065 -0.179786,0.26769 0.06437,0.65536 0.212453,0.83246 0.242192,0.28965 0.644935,0.3708 0.94176,0.12481 2.011036,-1.66665 1.583597,-2.10778 2.452539,-2.25942 0,0 0.04204,0.10982 -0.336345,0.94968 -0.135913,0.30167 -0.55452,0.77307 -0.377095,1.15226 0.21268,0.45454 0.795557,0.62164 1.165089,0.50476 0.548834,-0.1736 1.4590648,-0.85189 1.7140268,-1.01745 0.166203,-0.10792 0.343693,-0.0888 0.462747,-0.0468 0.2073134,0.0731 0.04639,0.66499 0.3260239,0.84823 0.306523,0.20086 1.251405,0.37979 1.606415,-0.20163 0.693334,-1.13553 3.274032,-3.19347 4.503471,-3.24584 1.229439,-0.0524 3.146378,-0.76174 7.273359,-1.34497 4.12698,-0.58321 9.566313,-3.81745 10.801812,-4.34657 2.483672,0.029 -5.279898,-8.54449 -6.978441,-6.49191 z"
       id="path19236"
       sodipodi:nodetypes="ccssssssssssssssscssssssscsccc" />
    <path
       style="display:inline;fill:#e5b99b;fill-opacity:1;stroke:none;stroke-width:0.264583px;stroke-linecap:butt;stroke-linejoin:miter;stroke-opacity:1"
       d="m 11.322048,56.554547 0.123811,-0.23259 0.153293,-0.8214 c 0,0 -0.03512,-0.39293 -0.261361,-0.55663 -0.188628,-0.0988 -0.472857,-0.13513 -0.661518,-0.0672 -0.188661,0.068 -0.284753,0.21558 -0.32261,0.40667 -0.01896,0.0957 -0.08958,0.38529 -0.111352,0.48047 -0.03577,0.15637 -0.197446,0.71045 -0.135724,0.78242 0.06174,0.072 0.744974,0.25438 1.215449,0.008 z"
       id="path69093"
       sodipodi:nodetypes="cccczsscsc" />
    <path
       d="m 4.6105603,56.371397 c -0.296825,0.24599 -0.699568,0.16484 -0.94176,-0.12481 -0.148083,-0.1771 -0.392239,-0.56477 -0.212453,-0.83246 l 0.141347,-0.0803 c 0,0 -0.06463,0.67563 0.206183,0.80714 0.129356,0.0628 0.291309,0.19573 0.703581,-0.0222 0.277796,-0.14681 0.946606,-0.78516 1.271764,-1.06434 0.202537,-0.1739 0.521855,-0.52603 0.756481,-0.77815 0.100236,-0.10772 0.773183,-0.37791 0.512463,-0.19773 -0.429923,0.29712 -1.325078,1.31075 -1.517962,1.50131 -0.439497,0.4342 -0.919644,0.79144 -0.919644,0.79144 z"
       style="display:inline;fill:#e3b08a;fill-opacity:1;stroke:none;stroke-width:0.351998px;stroke-linecap:butt;stroke-linejoin:miter;stroke-opacity:1"
       id="path61429"
       sodipodi:nodetypes="csccsssssscc" />
    <path
       d="m 7.9234663,48.664077 c 0.09973,-0.11465 0.6973968,-0.47271 0.333576,-0.48271 -0.990677,-0.0273 -1.901697,-0.37912 -2.685728,-0.78267 -0.498615,-0.25665 -0.889039,-0.70021 -0.852879,-1.12862 l 0.239962,0.21737 c 0,0 0.541182,0.82089 1.447081,1.07841 0.905899,0.25753 1.873176,0.0681 1.996907,0.19006 0.123731,0.12195 1.1790078,-0.004 0.8956908,0.40489 -0.283317,0.40901 -2.4206948,1.68708 -2.6007108,1.41984 -0.180015,-0.26725 0.435939,-0.26809 1.226101,-0.91657 z"
       style="display:inline;fill:#e5b99b;fill-opacity:1;stroke:none;stroke-width:0.351998px;stroke-linecap:butt;stroke-linejoin:miter;stroke-opacity:1"
       id="path61113"
       sodipodi:nodetypes="ccsccssssc" />
    <path
       style="display:inline;fill:#e3b08a;fill-opacity:1;stroke:none;stroke-width:0.264583px;stroke-linecap:butt;stroke-linejoin:miter;stroke-opacity:1"
       d="m 4.2712653,52.470877 c 0,0 0.776473,-0.079 1.207815,-0.27563 0.43134,-0.19664 0.703819,-0.17964 0.707655,0.14651 0.0038,0.32615 -0.389281,0.59661 -0.389281,0.59661 0,0 0.589041,-0.022 0.703384,-0.56769 0.114342,-0.54572 -0.456097,-0.67026 -0.598625,-0.65618 -0.142529,0.0141 -0.938107,0.4377 -1.162495,0.44652 -0.22439,0.009 -0.523287,-0.1141 -0.4484,-0.3672 0.07489,-0.25309 -0.452374,-0.12008 -0.02005,0.67706 z"
       id="path60439" />
    <path
       style="display:inline;fill:#e3b08a;fill-opacity:1;stroke:none;stroke-width:0.264583px;stroke-linecap:butt;stroke-linejoin:miter;stroke-opacity:1"
       d="m 4.7128683,52.329777 c 0,0 -2.195187,1.22209 -2.269043,1.34637 -0.07386,0.12429 -0.102809,-0.18919 -0.102809,-0.18919 0,0 1.620404,-1.04925 2.007632,-1.1889 0.387231,-0.13966 0.36422,0.0317 0.36422,0.0317 z"
       id="path60822" />
    <path
       style="display:inline;fill:#e3b08a;fill-opacity:1;stroke:none;stroke-width:0.264583px;stroke-linecap:butt;stroke-linejoin:miter;stroke-opacity:1"
       d="m 11.429324,56.527477 c 0,0 0.06368,-0.34283 0.159325,-0.86433 0.06192,-0.33765 -0.296909,-0.3957 -0.397678,-0.41899 -0.05485,-0.0127 -0.003,0.10437 0.04821,0.1363 0.03587,0.0224 0.225371,0.10872 0.158167,0.36109 -0.124261,0.46665 -0.02321,0.54825 -0.185064,0.62442 -0.16185,0.0762 -0.638013,0.20593 -0.782958,0.13913 -0.144951,-0.0668 -0.3231,0.0675 0.0089,0.1731 0.266534,0.0377 0.878975,-0.0199 0.991148,-0.15075 z"
       id="path64696"
       sodipodi:nodetypes="csssssscsc" />
    <path
       style="display:inline;fill:#e5b99b;fill-opacity:1;stroke:none;stroke-width:0.264583px;stroke-linecap:butt;stroke-linejoin:miter;stroke-opacity:1"
       d="m 7.7210723,55.305957 0.509519,-0.35063 c 0,0 0.292899,-0.16848 0.4442828,-0.13681 0.151384,0.0317 0.485283,0.0783 0.600009,0.27627 0.114726,0.198 0.126703,0.45846 7.94e-4,0.50468 -0.125939,0.0462 -0.17612,0.31124 -0.7972878,0.24501 -0.62117,-0.0662 -0.757288,-0.53852 -0.757288,-0.53852 z"
       id="path70651" />
    <path
       style="display:inline;fill:#e5b99b;fill-opacity:1;stroke:none;stroke-width:0.264583px;stroke-linecap:butt;stroke-linejoin:miter;stroke-opacity:1"
       d="m 7.7823583,50.257567 c 0,0 0.04299,1.10167 1.4158188,1.12618 1.3728359,0.0245 2.9198359,0.27197 3.7540749,-0.27867 0.83424,-0.55064 0.659472,-1.5201 0.659472,-1.5201 0,0 -0.203319,-0.29474 -0.433806,0.58145 -0.230489,0.87619 -3.091241,1.21416 -3.6824939,0.60533 -0.591252,-0.60883 -1.6479128,-0.73546 -1.7130658,-0.51419 z"
       id="path71233" />
    <path
       style="display:inline;fill:#e5b99b;fill-opacity:1;stroke:none;stroke-width:0.264583px;stroke-linecap:butt;stroke-linejoin:miter;stroke-opacity:1"
       d="m 16.084797,52.792147 c 0,0 4.098039,-2.33013 5.39732,-2.45502 1.299282,-0.12488 3.407963,-2.17274 3.996738,-2.63563 0.588772,-0.46289 3.793717,-0.90129 4.547103,-1.30303 0.753385,-0.40174 2.756918,-1.23227 2.835322,-1.83373 0.0784,-0.60147 1.867501,1.1443 1.773957,1.98137 -0.09355,0.83708 -6.143797,3.32051 -6.143797,3.32051 0,0 -3.385097,1.03131 -3.759697,1.15171 -0.3746,0.12039 -6.190681,1.39064 -6.190681,1.39064 z"
       id="path78156" />
    <path
       style="display:inline;fill:#e5b99b;fill-opacity:1;stroke:none;stroke-width:0.264583px;stroke-linecap:butt;stroke-linejoin:miter;stroke-opacity:1"
       d="m 15.387538,51.766807 c 0,0 -0.636307,-1.3899 1.578192,-1.8553 2.214502,-0.46539 2.536604,-0.0508 1.359437,0.23654 -1.117176,0.27266 -2.505573,0.11253 -2.594473,1.09504 -0.0889,0.98251 -0.343156,0.52372 -0.343156,0.52372 z"
       id="path78514"
       sodipodi:nodetypes="csssc" />
    <path
       style="display:inline;fill:#e5b99b;fill-opacity:1;stroke:none;stroke-width:0.264583px;stroke-linecap:butt;stroke-linejoin:miter;stroke-opacity:1"
       d="m 15.569577,49.765737 c 0,0 2.552361,-0.95293 3.270141,-0.99548 0.717781,-0.0426 0.50047,-0.98735 -0.189497,-0.53797 -0.68997,0.44938 -2.994514,0.77188 -3.154105,1.2422 0.0213,0.22977 0.03187,0.26613 0.07346,0.29125 z"
       id="path81255"
       sodipodi:nodetypes="ccscc" />
    <path
       style="display:inline;fill:#d39f76;fill-opacity:1;stroke:none;stroke-width:0.28015px;stroke-linecap:butt;stroke-linejoin:miter;stroke-opacity:1"
       d="m 15.56111,50.565237 c 0,0 0.479409,-0.65937 1.772833,-0.83054 1.04878,-0.13878 1.609876,-0.12979 1.609876,-0.12979 0,0 0.002,0.1092 -0.226882,0.182 -0.228923,0.0728 -1.826372,-0.0128 -3.087678,0.97487 -0.189386,0.1483 -0.124457,-0.0655 -0.06815,-0.19654 z"
       id="path105711"
       sodipodi:nodetypes="csccscc" />
    <path
       style="display:inline;fill:#d39f76;fill-opacity:1;stroke:none;stroke-width:0.264583px;stroke-linecap:butt;stroke-linejoin:miter;stroke-opacity:1"
       d="m 15.57036,49.766267 c 0,0 1.873896,-0.65011 2.03354,-0.69907 0.159644,-0.049 1.071007,-0.28166 1.219549,-0.29819 0.14854,-0.0165 0.300683,-0.0338 0.378804,-0.13392 0.07812,-0.10012 0.07022,-0.22513 -0.0064,-0.21683 -0.07658,0.008 -1.625112,0.46368 -1.866052,0.54234 -0.240938,0.0787 -1.811794,0.48528 -1.814597,0.66336 -6.67e-4,0.0423 0.05722,0.13249 0.05722,0.13249 z"
       id="path105993"
       sodipodi:nodetypes="ccssccscc" />
    <path
       style="display:inline;fill:#d39f76;fill-opacity:1;stroke:none;stroke-width:0.264583px;stroke-linecap:butt;stroke-linejoin:miter;stroke-opacity:1"
       d="m 24.19427,49.826417 c 0,0 2.837816,-2.00935 3.211494,-1.95636 0.837277,0.11871 -0.200994,0.34698 -0.200994,0.34698 0,0 -2.728605,1.7714 -2.84453,1.85472 -0.115927,0.0833 -0.661716,0.66673 -0.978223,0.65454 -0.03566,0.042 -1.255674,0.67445 -1.244724,0.59338 0.01,-0.0739 1.247591,-0.85807 1.285594,-0.90213 0.07967,-0.0923 0.771386,-0.59113 0.771386,-0.59113 z"
       id="path106133"
       sodipodi:nodetypes="cscscsccc" />
    <path
       d="m 34.17207,47.379057 c -1.235499,0.52912 -6.674831,3.76336 -10.801811,4.34657 -4.126981,0.58323 -6.04392,1.29258 -7.273359,1.34498 0,0 -0.748941,-0.045 -0.685377,-0.14646 0.06356,-0.10151 1.458998,-0.49079 1.458998,-0.49079 0,0 6.188944,-1.25561 6.723269,-1.79244 0.534326,-0.53684 4.397972,-2.97511 4.754153,-2.92574 0.356181,0.0494 -3.252918,2.04506 -3.460536,2.62266 -0.207617,0.5776 2.348304,-0.37513 3.104238,-1.1717 0.755934,-0.79658 1.918509,-2.42642 2.411921,-2.14373 0.493411,0.28268 -1.309598,1.0396 -1.617134,2.11211 -0.307536,1.0725 2.929795,-2.3761 4.394942,-2.2987 1.465147,0.0774 1.018906,-0.95558 1.018906,-0.95558 0,0 1.143965,0.99859 -0.02821,1.49882 z"
       style="display:inline;fill:#e3b08a;fill-opacity:1;stroke:none;stroke-width:0.351998px;stroke-linecap:butt;stroke-linejoin:miter;stroke-opacity:1"
       id="path74645" />
    <path
       style="display:inline;fill:#ed977e;fill-opacity:1;stroke:none;stroke-width:0.264583px;stroke-linecap:butt;stroke-linejoin:miter;stroke-opacity:1"
       d="m 59.287281,13.927127 c 0,0 0.921951,-0.0672 1.175943,-0.0332 0.253989,0.034 0.563943,-0.1278 0.834535,-0.0306 0.27059,0.0972 0.427398,0.0791 0.532244,0.18614 0.104846,0.10704 -0.50494,-0.16657 -0.632313,-0.16657 -0.127376,0 -0.431677,0.004 -0.492425,0.0778 -0.293462,-0.0534 -1.22396,-0.0215 -1.353365,0.004 -0.167627,0.0334 -0.407109,0.18104 -0.06462,-0.0378 z"
       id="path43514"
       sodipodi:nodetypes="csssscscc" />
    <path
       d="m 9.2100921,55.707467 c -0.254962,0.16556 -1.1651928,0.84385 -1.7140268,1.01745 -0.369532,0.11688 -0.952409,-0.0502 -1.165089,-0.50476 -0.177425,-0.37919 0.151195,-0.67025 0.287108,-0.97192 0,0 0.407017,-0.43928 0.350874,-0.2365 -0.07874,0.28438 -0.340417,1.04677 -0.106719,0.83904 0.227617,-0.20232 0.596546,-0.47568 0.863889,-0.68471 0.209195,-0.16356 0.542563,-0.28737 0.640833,-0.288 0.2238568,-0.001 0.01684,0.0755 0.03096,0.4 0.02528,0.58107 0.8121728,0.4294 0.8121728,0.4294 z"
       style="display:inline;fill:#e3b08a;fill-opacity:1;stroke:none;stroke-width:0.351998px;stroke-linecap:butt;stroke-linejoin:miter;stroke-opacity:1"
       id="path63680"
       sodipodi:nodetypes="csscssscsc" />
    <path
       style="display:inline;fill:#f4ebbc;fill-opacity:1;stroke:none;stroke-width:0.387953px;stroke-linecap:butt;stroke-linejoin:miter;stroke-opacity:1"
       d="m 46.811381,45.164387 -0.857065,0.13361 c 0,0 -1.053984,-1.64398 0.599345,-3.3972 0,0 21.386783,0.43107 26.855553,0.0785 0,0 0.81123,1.79623 -0.21707,3.43432 0,0 0.0875,-0.31613 -0.92271,-0.27434 0,0 -0.19197,5.4367 0.18883,9.14192 0.3808,3.70524 -0.3874,7.94011 -0.2858,12.14943 0.10155,4.20932 -0.37588,2.35495 0.16581,3.60183 l 1.00103,0.17067 c 0,0 1.35317,1.35409 0.0705,3.25747 0,0 -24.390593,-0.2025 -27.89403,-0.16801 0,0 -1.682283,-1.67843 -0.03479,-3.55548 l 1.454388,0.24873 c 0,0 0.07819,-4.27532 -0.274513,-5.3844 -0.352701,-1.1091 0.295084,-12.1563 0.244807,-14.96705 -0.05028,-2.81076 0.07052,-2.51129 -0.09429,-4.47"
       id="path8621"
       sodipodi:nodetypes="ccccccssccccccssc"
       inkscape:label="back" />
    <path
       style="display:inline;fill:#e6dca5;fill-opacity:0.486847;stroke:none;stroke-width:0.28973px;stroke-linecap:butt;stroke-linejoin:miter;stroke-opacity:1"
       d="m 46.87021,45.458927 c 0,0 20.833314,-0.7747 24.823144,-0.0511 l 0.56513,0.0921 0.0824,6.4942 c 0,0 -3.43216,-1.25361 -4.67274,-1.72327 -1.2756,-0.48292 -3.76367,1.18605 -4.307605,1.33175 -0.54394,0.1457 -8.401592,-1.62706 -10.384005,-0.51711 -2.115131,1.18374 -5.569317,-0.0136 -5.896697,0.63395 -0.19003,0.3759 -0.209607,-6.25998 -0.209607,-6.25998 z"
       id="path23480-8"
       sodipodi:nodetypes="ccccsssscc"
       inkscape:label="top-2" />
    <path
       style="display:inline;fill:#d1c996;fill-opacity:1;stroke:none;stroke-width:0.271966px;stroke-linecap:butt;stroke-linejoin:miter;stroke-opacity:1"
       d="m 46.88846,45.083357 c 0,0 20.833314,-0.68261 24.823144,-0.045 l 0.56513,0.0811 -0.0396,0.90751 c 0,0 -3.05798,-0.57974 -4.42121,-0.61863 -1.36324,-0.0389 -5.332887,0.22317 -5.876826,0.35155 -0.543937,0.12838 -3.889794,0.36266 -6.107531,-0.0713 -1.944498,-0.38046 -8.52811,-0.47469 -8.855483,0.0959 -0.190037,0.33122 -0.08759,-0.70113 -0.08759,-0.70113 z"
       id="path23480"
       sodipodi:nodetypes="ccccsssscc"
       inkscape:label="top-1" />
    <path
       style="display:inline;fill:#e6dca5;fill-opacity:0.486847;stroke:none;stroke-width:0.28973px;stroke-linecap:butt;stroke-linejoin:miter;stroke-opacity:1"
       d="m 46.735183,69.663987 c 0,0 20.833311,0.7747 24.823141,0.0511 l 0.56513,-0.0921 0.0824,-6.4942 c 0,0 -3.43216,1.25361 -4.67274,1.72327 -1.2756,0.48292 -3.76367,-1.18605 -4.307601,-1.33175 -0.54394,-0.1457 -8.4016,1.62706 -10.38401,0.51711 -2.11513,-1.18374 -4.994082,-0.97952 -6.250616,-0.63395 -0.161106,0.0443 0.151909,1.95681 0.286607,3.13358 0.355527,3.10599 -0.142291,3.1264 -0.142291,3.1264 z"
       id="path23480-8-7"
       sodipodi:nodetypes="ccccssssscc"
       inkscape:label="bot-2" />
    <path
       style="display:inline;fill:#d1c996;fill-opacity:1;stroke:none;stroke-width:0.271966px;stroke-linecap:butt;stroke-linejoin:miter;stroke-opacity:1"
       d="m 47.025335,70.022977 c 0,0 20.561409,0.69919 24.551239,0.0616 l 0.56513,-0.0811 -0.0396,-0.90751 c 0,0 -3.05798,0.57974 -4.42121,0.61863 -1.36324,0.0389 -5.332891,-0.22317 -5.876821,-0.35155 -0.54394,-0.12838 -3.8898,-0.36266 -6.10753,0.0713 -1.9445,0.38046 -8.52811,0.47469 -8.85549,-0.0959 -0.19003,-0.33122 -0.1713,0.56354 -0.1713,0.56354 z"
       id="path23480-9"
       sodipodi:nodetypes="ccccsssscc"
       inkscape:label="bot-1" />
    <path
       style="display:inline;fill:#e9c6af;stroke:none;stroke-width:0.393478px;stroke-linecap:butt;stroke-linejoin:miter;stroke-opacity:1"
       d="m 70.202574,42.184577 -5.79931,0.0928 c -1.248106,0.02 -0.25895,1.5938 -0.83529,2.27081 -0.220742,0.2593 -0.793607,0.096 -0.981001,0.0831 -0.127933,-0.009 -0.11751,-0.55529 -0.258025,-0.58662 -0.06259,-0.014 -0.08846,0.43011 -0.128556,0.58292 -0.247347,0.94268 -0.369465,1.01314 -1.541228,0.57331 -0.60175,-0.8546 -0.982042,0.35734 -0.982042,0.35734 -1.563671,0.38786 -1.606715,-1.31428 -2.155579,-1.6468 -0.09989,-0.0605 -0.02238,0.88302 -0.183702,0.85645 -1.105547,1.52211 -2.042095,-0.49347 -2.042095,-0.49347 -0.421738,-3.00791 0.03844,-1.84397 -1.768724,-2.0228 -0.784539,0.12847 -2.735135,-0.11551 -2.735135,-0.11551 -0.308164,-0.46131 0.02978,-0.86741 0.384804,-1.19255 1.040528,-0.15734 -0.186952,0.1292 1.040528,-0.15734 0.920519,-0.21487 2.182411,-0.39484 2.182411,-0.39484 0.605229,0 0.755339,-0.27264 1.801469,-0.34092 1.046126,-0.0683 0.924576,-0.11595 4.155113,-0.37423 1.613584,-0.12901 2.523512,0.88453 3.202882,1.02407"
       id="path6383"
       sodipodi:nodetypes="csssssccscccccscssc" />
    <path
       style="display:inline;fill:#e5b99b;fill-opacity:1;stroke:none;stroke-width:0.264583px;stroke-linecap:butt;stroke-linejoin:miter;stroke-opacity:1"
       d="m 57.607918,39.945957 c 0,0 -0.213847,0.20666 -0.278723,0.31606 -0.06488,0.1094 0.04005,0.4756 0.06028,0.54701 0.02024,0.0714 0.06459,0.95789 0.09118,1.1702 0.02075,0.16566 0.182574,-0.6539 0.224318,-0.84319 0.05,-0.22673 -0.03499,-0.60349 0.286604,-0.91136 0.08446,-0.0809 0.773091,-0.17652 1.166121,0.30881 0.269039,0.33223 0.422169,1.36513 0.487462,1.54221 0.1573,0.42661 0.370214,1.33196 0.391318,1.32 0.100251,-0.057 -0.196813,-2.55427 -0.137203,-2.81827 0.05961,-0.264 0.0618,-0.46675 -0.02297,-0.57226 -0.08477,-0.10552 -0.300556,-0.29736 -0.300556,-0.29736 l -0.433719,-0.13457 -0.651327,-0.0611 -0.507434,0.1587 z"
       id="path89037"
       sodipodi:nodetypes="cssssssscssccccc" />
    <path
       style="display:inline;fill:#e5b99b;fill-opacity:1;stroke:none;stroke-width:0.264583px;stroke-linecap:butt;stroke-linejoin:miter;stroke-opacity:1"
       d="m 58.254082,45.563107 c 0,0 -0.05474,0.16658 -0.297615,-0.4578 -0.242874,-0.62434 -0.51471,-1.27191 -0.54392,-2.12539 -0.02921,-0.85349 0.103391,-0.62172 0.169116,-0.179 0.06573,0.44272 0.774665,2.25311 1.094748,2.44039 0.907008,0.31101 1.255949,-0.32983 1.209087,-0.13702 -0.05272,0.21693 -0.116251,0.28682 -0.224483,0.42025 -0.09298,0.11462 -0.393173,0.15297 -0.393173,0.15297 z"
       id="path87091"
       sodipodi:nodetypes="cssscsscc" />
    <path
       style="display:inline;fill:#e5b99b;fill-opacity:1;stroke:none;stroke-width:0.264583px;stroke-linecap:butt;stroke-linejoin:miter;stroke-opacity:1"
       d="m 60.358359,44.881847 c 0,0 0.02331,0.52324 0.211064,0.53042 0.241508,0.009 1.076045,0.17998 1.340153,0.0396 0.103019,-0.0548 0.111102,-0.30442 0.111102,-0.30442 0,0 -0.313298,0.0894 -0.642551,0.0592 -0.289693,-0.0266 -0.929938,-0.10035 -1.041873,-1.01009 -0.111934,-0.90974 -0.117246,-1.02876 -0.117246,-1.02876 0,0 -0.20928,-0.18469 -0.08142,0.63898 0.12786,0.82367 0.09174,0.85728 0.220773,1.07509 z"
       id="path87849"
       sodipodi:nodetypes="csscsscssc" />
    <path
       style="display:inline;fill:#e5b99b;fill-opacity:1;stroke:none;stroke-width:0.264583px;stroke-linecap:butt;stroke-linejoin:miter;stroke-opacity:1"
       d="m 62.389494,44.068217 c 0,0 0.08934,0.5554 0.19962,0.5554 0.110281,0 0.52029,0.0906 0.572342,0.0682 0.05205,-0.0224 -0.02911,-0.0998 -0.271852,-0.14851 -0.102724,-0.0206 -0.244056,-0.0738 -0.244056,-0.16913 0,-0.0953 -0.110908,-0.3442 -0.08455,-0.7872 0.02635,-0.44299 -0.221172,-0.0155 -0.171499,0.48126 z"
       id="path88162"
       sodipodi:nodetypes="cssssssc" />
    <path
       style="display:inline;fill:#d39f76;fill-opacity:1;stroke:none;stroke-width:0.264583px;stroke-linecap:butt;stroke-linejoin:miter;stroke-opacity:1"
       d="m 57.560631,39.892417 c 0,0 0.48128,-0.44611 0.810054,-0.44611 0.328774,0 0.776309,0.0278 0.958966,0.0761 0.182656,0.0483 0.364517,0.20096 0.495089,0.30764 0.130572,0.10668 0.05462,0.88407 0.06496,1.03736 0.0068,0.10009 0.04726,0.88107 -0.01808,0.93492 -0.07119,0.0587 -0.04609,-1.4536 -0.06507,-1.58118 -0.04021,-0.27018 -0.100502,-0.28622 -0.156792,-0.35251 -0.0978,-0.11518 -0.708967,-0.2806 -0.96433,-0.2806 -0.255365,0 -0.654321,0.0787 -0.774205,0.21596 -0.03024,0.0346 -0.158238,0.0911 -0.260689,0.16868 -0.138964,0.10527 -0.261147,0.23302 -0.31041,0.2446 -0.06904,0.0162 0.149813,-0.25771 0.22051,-0.32488 0.0707,-0.0672 -3e-6,2e-5 -3e-6,2e-5 z"
       id="path88771"
       sodipodi:nodetypes="cssssssssssszc" />
    <path
       style="display:inline;fill:#e5b99b;fill-opacity:1;stroke:none;stroke-width:0.217046px;stroke-linecap:butt;stroke-linejoin:miter;stroke-opacity:1"
       d="m 60.208525,40.043417 c 0,0 -0.183414,0.16214 -0.239058,0.24798 -0.05565,0.0858 0.03435,0.37316 0.05171,0.42918 0.01736,0.056 0.0554,0.75157 0.0782,0.91815 0.0178,0.12998 0.156591,-0.51305 0.192395,-0.66157 0.04289,-0.1779 -0.03001,-0.4735 0.245817,-0.71506 0.07244,-0.0635 0.66307,-0.1385 1.000171,0.24229 0.230753,0.26067 0.362091,1.07109 0.418089,1.21003 0.134914,0.33472 0.317524,1.04506 0.33563,1.03568 0.08599,-0.0447 -0.168809,-2.00409 -0.117683,-2.21123 0.05112,-0.20714 0.05301,-0.36621 -0.01973,-0.449 -0.07273,-0.0828 -0.257779,-0.23331 -0.257779,-0.23331 l -0.371996,-0.10558 -0.558637,-0.0479 -0.43522,0.12452 z"
       id="path89037-3"
       sodipodi:nodetypes="cssssssscssccccc" />
    <path
       style="display:inline;fill:#d39f76;fill-opacity:1;stroke:none;stroke-width:0.217046px;stroke-linecap:butt;stroke-linejoin:miter;stroke-opacity:1"
       d="m 60.167967,40.001407 c 0,0 0.412789,-0.35002 0.694774,-0.35002 0.281985,0 0.665829,0.0218 0.822495,0.0597 0.156665,0.0379 0.312644,0.15767 0.424632,0.24137 0.111989,0.0837 0.04683,0.69365 0.05575,0.81392 0.006,0.0785 0.04057,0.69129 -0.01552,0.73354 -0.06106,0.0461 -0.03954,-1.1405 -0.05584,-1.2406 -0.03448,-0.21198 -0.08619,-0.22457 -0.134477,-0.27658 -0.08388,-0.0904 -0.608077,-0.22016 -0.827098,-0.22016 -0.219024,0 -0.561204,0.0617 -0.664027,0.16944 -0.02594,0.0271 -0.135719,0.0715 -0.223589,0.13235 -0.119189,0.0826 -0.223983,0.18283 -0.266236,0.19191 -0.05921,0.0127 0.128493,-0.2022 0.189129,-0.2549 0.06064,-0.0527 -2e-6,2e-5 -2e-6,2e-5 z"
       id="path88771-7"
       sodipodi:nodetypes="cssssssssssszc" />
    <path
       style="display:inline;fill:#e5b99b;fill-opacity:1;stroke:none;stroke-width:0.125428px;stroke-linecap:butt;stroke-linejoin:miter;stroke-opacity:1"
       d="m 62.387084,40.450347 c 0,0 -0.10599,0.0937 -0.138144,0.1433 -0.03213,0.0496 0.01988,0.21565 0.02988,0.24802 0.01005,0.0324 0.03201,0.43432 0.04519,0.53058 0.01029,0.0751 0.09049,-0.29648 0.111179,-0.38231 0.02479,-0.1028 -0.01734,-0.27363 0.142056,-0.41322 0.04184,-0.0367 0.383178,-0.08 0.577986,0.14002 0.13334,0.15063 0.20924,0.61896 0.2416,0.69925 0.078,0.19343 0.183493,0.60393 0.193963,0.59851 0.0497,-0.0258 -0.0975,-1.15814 -0.068,-1.27784 0.0295,-0.1197 0.0306,-0.21163 -0.0114,-0.25947 -0.042,-0.0478 -0.14896,-0.13483 -0.14896,-0.13483 l -0.21497,-0.061 -0.322829,-0.0277 -0.251507,0.072 z"
       id="path89037-3-5"
       sodipodi:nodetypes="cssssssscssccccc" />
    <path
       style="display:inline;fill:#d39f76;fill-opacity:1;stroke:none;stroke-width:0.125428px;stroke-linecap:butt;stroke-linejoin:miter;stroke-opacity:1"
       d="m 62.363651,40.426067 c 0,0 0.238539,-0.20227 0.401497,-0.20227 0.162952,0 0.384773,0.0126 0.475303,0.0345 0.0905,0.0219 0.18068,0.0911 0.2454,0.13948 0.0647,0.0484 0.027,0.40085 0.0322,0.47036 0.003,0.0454 0.0235,0.39948 -0.009,0.4239 -0.0353,0.0266 -0.0228,-0.65908 -0.0322,-0.71693 -0.0199,-0.1225 -0.0498,-0.12977 -0.0777,-0.15983 -0.0485,-0.0522 -0.351397,-0.12723 -0.477965,-0.12723 -0.126569,0 -0.324309,0.0357 -0.383733,0.0979 -0.01497,0.0157 -0.07842,0.0413 -0.129204,0.0765 -0.06888,0.0477 -0.12944,0.10566 -0.153856,0.11091 -0.03421,0.007 0.07425,-0.11685 0.109296,-0.14731 0.03502,-0.0305 0,1e-5 0,1e-5 z"
       id="path88771-7-9"
       sodipodi:nodetypes="cssssssssssszc" />
    <path
       style="display:inline;fill:#e5b99b;fill-opacity:1;stroke:none;stroke-width:0.222508px;stroke-linecap:butt;stroke-linejoin:miter;stroke-opacity:1"
       d="m 55.235163,40.274457 c 0,0 -0.185872,0.16815 -0.24226,0.25717 -0.05636,0.0889 0.03488,0.387 0.05241,0.44509 0.01763,0.0581 0.05614,0.77941 0.07925,0.95216 0.01803,0.13477 0.158688,-0.53205 0.19497,-0.68607 0.04347,-0.18448 -0.03042,-0.49106 0.24911,-0.74156 0.07331,-0.0659 0.671968,-0.14357 1.013599,0.25128 0.233831,0.27031 0.366935,1.11077 0.423683,1.25486 0.136784,0.34711 0.321777,1.08378 0.340139,1.07405 0.08715,-0.0463 -0.170982,-2.07836 -0.119254,-2.29316 0.05173,-0.21481 0.05366,-0.37978 -0.02,-0.46565 -0.07367,-0.0858 -0.261226,-0.24197 -0.261226,-0.24197 l -0.376983,-0.1095 -0.566135,-0.0497 -0.44105,0.12921 z"
       id="path89037-3-5-2"
       sodipodi:nodetypes="cssssssscssccccc" />
    <path
       style="display:inline;fill:#d39f76;fill-opacity:1;stroke:none;stroke-width:0.222508px;stroke-linecap:butt;stroke-linejoin:miter;stroke-opacity:1"
       d="m 55.194066,40.230897 c 0,0 0.418319,-0.36298 0.704095,-0.36298 0.285759,0 0.674755,0.0226 0.833514,0.0619 0.158706,0.0393 0.316852,0.1635 0.430348,0.2503 0.113457,0.0869 0.04737,0.71936 0.05646,0.8441 0.0052,0.0813 0.04121,0.71689 -0.0158,0.76072 -0.06191,0.0477 -0.03999,-1.18276 -0.05646,-1.28657 -0.0349,-0.21984 -0.08733,-0.2329 -0.13626,-0.28683 -0.08507,-0.0936 -0.616236,-0.22833 -0.838197,-0.22833 -0.221944,0 -0.568712,0.0641 -0.672928,0.17569 -0.02625,0.0282 -0.137522,0.0742 -0.226579,0.13728 -0.120789,0.0858 -0.226994,0.18962 -0.269811,0.19904 -0.05998,0.0125 0.130207,-0.20969 0.191666,-0.26436 0.06141,-0.0548 0,2e-5 0,2e-5 z"
       id="path88771-7-9-2"
       sodipodi:nodetypes="cssssssssssszc" />
    <text
       xml:space="preserve"
       style="font-style:normal;font-variant:normal;font-weight:normal;font-stretch:normal;font-size:1.51694px;line-height:1.25;font-family:sans-serif;-inkscape-font-specification:'sans-serif, Normal';font-variant-ligatures:normal;font-variant-caps:normal;font-variant-numeric:normal;font-variant-east-asian:normal;display:inline;fill:#000000;fill-opacity:1;stroke:none;stroke-width:0.387953"
       x="46.716766"
       y="49.095551"
       id="text91680"
       transform="scale(1.0272348,0.97348726)"><tspan
         sodipodi:role="line"
         id="tspan28717"
         x="46.716766"
         y="49.095551">#include &lt;stdio.h&gt;</tspan><tspan
         sodipodi:role="line"
         id="tspan28719"
         x="46.716766"
         y="50.991726" /><tspan
         sodipodi:role="line"
         id="tspan28721"
         x="46.716766"
         y="52.887901">int main(int argc, char *argv[]) {</tspan><tspan
         sodipodi:role="line"
         id="tspan28723"
         x="46.716766"
         y="54.784077" /><tspan
         sodipodi:role="line"
         id="tspan28725"
         x="46.716766"
         y="56.680252">  char* foo = &quot;bar&quot;;</tspan><tspan
         sodipodi:role="line"
         id="tspan28727"
         x="46.716766"
         y="58.576424" /><tspan
         sodipodi:role="line"
         id="tspan28729"
         x="46.716766"
         y="60.472599">  for (int i = 0; i &lt; 10; i++) {</tspan><tspan
         sodipodi:role="line"
         id="tspan28731"
         x="46.716766"
         y="62.368774">    printf(&quot;count: %d\n&quot;, i);</tspan><tspan
         sodipodi:role="line"
         id="tspan28733"
         x="46.716766"
         y="64.264954">    printf(&quot;%s\n&quot;, foo);</tspan><tspan
         sodipodi:role="line"
         id="tspan28735"
         x="46.716766"
         y="66.161125">  }</tspan><tspan
         sodipodi:role="line"
         id="tspan28737"
         x="46.716766"
         y="68.057297">  return 1;</tspan><tspan
         sodipodi:role="line"
         id="tspan28739"
         x="46.716766"
         y="69.953476">}</tspan></text>
  </g>
</svg>
